<svg xmlns="http://www.w3.org/2000/svg" xmlns:xlink="http://www.w3.org/1999/xlink" width="24" height="14" viewBox="0 0 24 14">
  <defs>
    <clipPath id="clip-path">
      <rect width="24" height="14" fill="none"/>
    </clipPath>
  </defs>
  <g id="eye" clip-path="url(#clip-path)">
    <g id="Path_70" data-name="Path 70" transform="translate(1 -3)" fill="none">
      <path d="M11,3c7.794,0,12,7,12,7s-4.153,7-12,7S-1,10-1,10,3.206,3,11,3Z" stroke="none"/>
      <path d="M 11 5 C 8.300450325012207 5 5.769880294799805 5.986849784851074 3.478570938110352 7.933150291442871 C 2.604757308959961 8.675383567810059 1.927522659301758 9.427437782287598 1.461671829223633 10.00528621673584 C 1.923097610473633 10.58162021636963 2.594139099121094 11.33081245422363 3.462230682373047 12.07028007507324 C 5.744409561157227 14.0142993927002 8.28048038482666 15 11 15 C 13.71951961517334 15 16.25559043884277 14.0142993927002 18.53776931762695 12.07028007507324 C 19.40608024597168 11.33062648773193 20.07736015319824 10.58109188079834 20.53879737854004 10.00470066070557 C 20.09076881408691 9.449069976806641 19.44561767578125 8.730837821960449 18.61520957946777 8.013480186462402 C 16.30048942565918 6.013879776000977 13.73836994171143 5 11 5 M 11 3 C 18.79372024536133 3 23 10 23 10 C 23 10 18.84709930419922 17 11 17 C 3.152900695800781 17 -1 10 -1 10 C -1 10 3.206279754638672 3 11 3 Z" stroke="none" fill="#fff"/>
    </g>
    <path id="Subtraction_1" data-name="Subtraction 1" d="M5,0A5,5,0,1,1,0,5,5,5,0,0,1,5,0Z" transform="translate(7 0)" fill="#fff"/>
  </g>
</svg>
