<svg xmlns="http://www.w3.org/2000/svg" width="30" height="24.243" viewBox="0 0 30 24.243">
  <g id="eye" transform="translate(3 2.121)">
    <g id="Path_136" data-name="Path 136" transform="translate(5 1)" fill="none" stroke-linejoin="round">
      <path d="M7,2c7.144,0,12,7,12,7s-4.961,7-12,7S-5,9-5,9-.144,2,7,2Z" stroke="none"/>
      <path d="M 7 2 C -0.1438999176025391 2 -5 9 -5 9 C -5 9 -0.03892993927001953 16 7 16 C 14.03892993927002 16 19 9 19 9 C 19 9 14.14389991760254 2 7 2 M 7 -1 C 10.62973022460938 -1 14.29368019104004 0.4496402740478516 17.59573936462402 3.192190170288086 C 19.94964981079102 5.147259712219238 21.31679916381836 7.076459884643555 21.46493911743164 7.289999961853027 C 22.18465042114258 8.327460289001465 22.17773056030273 9.704520225524902 21.4476203918457 10.73468971252441 C 21.29708099365234 10.94709968566895 19.90875053405762 12.86612987518311 17.54932975769043 14.81364059448242 C 16.11270904541016 15.99946022033691 14.6083402633667 16.9507007598877 13.0780200958252 17.64093971252441 C 11.0786600112915 18.54274940490723 9.033720016479492 19 7 19 C 4.966279983520508 19 2.921339988708496 18.54274940490723 0.9219799041748047 17.64093971252441 C -0.6083402633666992 16.9507007598877 -2.112710952758789 15.99946022033691 -3.54932975769043 14.81364059448242 C -5.908750534057617 12.86612987518311 -7.297079086303711 10.94709968566895 -7.447620391845703 10.73468971252441 C -8.177730560302734 9.704520225524902 -8.184650421142578 8.327460289001465 -7.464939117431641 7.289999961853027 C -7.316799163818359 7.076459884643555 -5.949649810791016 5.147259712219238 -3.595739364624023 3.192190170288086 C -0.2936801910400391 0.4496402740478516 3.370269775390625 -1 7 -1 Z" stroke="none" fill="#464545"/>
    </g>
    <g id="Ellipse_42" data-name="Ellipse 42" transform="translate(6 4)" fill="none" stroke="#464545" stroke-width="3">
      <circle cx="6" cy="6" r="6" stroke="none"/>
      <circle cx="6" cy="6" r="4.5" fill="none"/>
    </g>
    <path id="Path_138" data-name="Path 138" d="M20,1,0,21" transform="translate(2 -1)" fill="none" stroke="#464545" stroke-linecap="round" stroke-width="3"/>
  </g>
</svg>
