<svg xmlns="http://www.w3.org/2000/svg" xmlns:xlink="http://www.w3.org/1999/xlink" width="30" height="17" viewBox="0 0 30 17">
  <defs>
    <clipPath id="clip-path">
      <rect width="30" height="17" fill="none"/>
    </clipPath>
  </defs>
  <g id="_device_" data-name="(device)" transform="translate(0)" clip-path="url(#clip-path)">
    <g id="Rectangle_171" data-name="Rectangle 171" transform="translate(2 7)" fill="#fff" stroke="#0075be" stroke-linejoin="round" stroke-width="2">
      <rect width="26" height="8" stroke="none"/>
      <rect x="-1" y="-1" width="28" height="10" fill="none"/>
    </g>
    <circle id="Ellipse_14" data-name="Ellipse 14" cx="1.5" cy="1.5" r="1.5" transform="translate(23 10)" fill="#0075be"/>
    <circle id="Ellipse_15" data-name="Ellipse 15" cx="1.5" cy="1.5" r="1.5" transform="translate(18 10)" fill="#0075be"/>
    <g id="Path_62" data-name="Path 62" transform="translate(2 2)" fill="#fff" stroke-linejoin="round">
      <path d="M 28.55764961242676 5 L 26 5 L -1.77635683940025e-15 5 L -2.557650089263916 5 L -0.6782799959182739 3.265199899673462 L 3.655050039291382 -0.7347999811172485 L 3.942349910736084 -1 L 4.333330154418945 -1 L 21.66666030883789 -1 L 22.05764007568359 -1 L 22.34494018554688 -0.7347999811172485 L 26.67827987670898 3.265199899673462 L 28.55764961242676 5 Z" stroke="none"/>
      <path d="M 4.333330154418945 0 L 0 4 L 26 4 L 21.66666030883789 0 L 4.333330154418945 0 M 4.333330154418945 -2 L 21.66666030883789 -2 C 22.1694393157959 -2 22.65377044677734 -1.810629844665527 23.02322006225586 -1.469610214233398 L 27.35655975341797 2.530390024185181 C 27.961669921875 3.088949918746948 28.16255950927734 3.961319923400879 27.86268997192383 4.728280067443848 C 27.56282043457031 5.495240211486816 26.82349967956543 6 26 6 L 0 6 C -0.8234996795654297 6 -1.562820434570313 5.495240211486816 -1.862689971923828 4.728280067443848 C -2.162559509277344 3.961319923400879 -1.961669921875 3.088959932327271 -1.356559753417969 2.530390024185181 L 2.976770401000977 -1.469610214233398 C 3.346210479736328 -1.810629844665527 3.830549240112305 -2 4.333330154418945 -2 Z" stroke="none" fill="#0075be"/>
    </g>
  </g>
</svg>
