<svg xmlns="http://www.w3.org/2000/svg" xmlns:xlink="http://www.w3.org/1999/xlink" width="26" height="26" viewBox="0 0 26 26">
  <defs>
    <clipPath id="clip-path">
      <rect width="26" height="26" fill="none"/>
    </clipPath>
  </defs>
  <g id="_cancel_" data-name="(cancel)" clip-path="url(#clip-path)">
    <g id="Path_55" data-name="Path 55" transform="translate(2 2)" fill="#fff" stroke-linejoin="round">
      <path d="M 23 23 L 22 23 L -1.77635683940025e-15 23 L -1 23 L -1 22 L -1 -1.77635683940025e-15 L -1 -1 L -1.77635683940025e-15 -1 L 22 -1 L 23 -1 L 23 -1.77635683940025e-15 L 23 22 L 23 23 Z" stroke="none"/>
      <path d="M 0 0 L 0 22 L 22 22 L 22 0 L 0 0 M 0 -2 L 22 -2 C 23.10457038879395 -2 24 -1.104570388793945 24 0 L 24 22 C 24 23.10457038879395 23.10457038879395 24 22 24 L 0 24 C -1.104570388793945 24 -2 23.10457038879395 -2 22 L -2 0 C -2 -1.104570388793945 -1.104570388793945 -2 0 -2 Z" stroke="none" fill="#0075be"/>
    </g>
    <g id="Rectangle_163" data-name="Rectangle 163" transform="translate(8.197 16.889) rotate(-45)" fill="#0075be" stroke="#0075be" stroke-linejoin="round" stroke-width="1">
      <rect width="12" height="2" stroke="none"/>
      <rect x="-0.5" y="-0.5" width="13" height="3" fill="none"/>
    </g>
    <g id="Rectangle_164" data-name="Rectangle 164" transform="translate(9.611 8.404) rotate(45)" fill="#0075be" stroke="#0075be" stroke-linejoin="round" stroke-width="1">
      <rect width="12" height="2" stroke="none"/>
      <rect x="-0.5" y="-0.5" width="13" height="3" fill="none"/>
    </g>
  </g>
</svg>
