<svg xmlns="http://www.w3.org/2000/svg" xmlns:xlink="http://www.w3.org/1999/xlink" width="26" height="26" viewBox="0 0 26 26">
  <defs>
    <clipPath id="clip-path">
      <rect width="26" height="26" fill="none"/>
    </clipPath>
  </defs>
  <g id="_fax_" data-name="(fax)" clip-path="url(#clip-path)">
    <g id="Rectangle_185" data-name="Rectangle 185" transform="translate(0 8)" fill="#fff" stroke="#0075be" stroke-width="2">
      <rect width="8" height="18" rx="3" stroke="none"/>
      <rect x="1" y="1" width="6" height="16" rx="2" fill="none"/>
    </g>
    <g id="Rectangle_186" data-name="Rectangle 186" transform="translate(6 10)" fill="#fff" stroke="#0075be" stroke-width="2">
      <path d="M0,0H16a4,4,0,0,1,4,4v6a4,4,0,0,1-4,4H0a0,0,0,0,1,0,0V0A0,0,0,0,1,0,0Z" stroke="none"/>
      <path d="M2,1H16a3,3,0,0,1,3,3v6a3,3,0,0,1-3,3H2a1,1,0,0,1-1-1V2A1,1,0,0,1,2,1Z" fill="none"/>
    </g>
    <g id="Rectangle_187" data-name="Rectangle 187" transform="translate(6)" fill="#fff" stroke="#0075be" stroke-linejoin="round" stroke-width="2">
      <rect width="16" height="12" stroke="none"/>
      <rect x="1" y="1" width="14" height="10" fill="none"/>
    </g>
    <line id="Line_17" data-name="Line 17" x2="8" transform="translate(10 15)" fill="none" stroke="#0075be" stroke-linecap="round" stroke-width="2"/>
  </g>
</svg>
