<svg xmlns="http://www.w3.org/2000/svg" xmlns:xlink="http://www.w3.org/1999/xlink" width="26" height="28" viewBox="0 0 26 28">
  <defs>
    <clipPath id="clip-path">
      <rect width="26" height="28" fill="none"/>
    </clipPath>
  </defs>
  <g id="_email_" data-name="(email)" clip-path="url(#clip-path)">
    <g id="Path_55" data-name="Path 55" transform="translate(2 10)" fill="#fff" stroke-linejoin="round">
      <path d="M 23 17 L 22 17 L 9.5367431640625e-07 17 L -0.9999990463256836 17 L -0.9999990463256836 16 L -0.9999990463256836 0 L -0.9999990463256836 -0.5092200040817261 L -0.5881690382957458 -0.8087400197982788 L 10.41183090209961 -8.80873966217041 L 11.00000095367432 -9.236499786376953 L 11.58817100524902 -8.80873966217041 L 22.58817100524902 -0.8087400197982788 L 23 -0.5092200040817261 L 23 0 L 23 16 L 23 17 Z" stroke="none"/>
      <path d="M 11.00000095367432 -8 L 1.9073486328125e-06 0 L 1.9073486328125e-06 16 L 22 16 L 22 0 L 11.00000095367432 -8 M 11.00000095367432 -10 C 11.41284561157227 -10 11.82569122314453 -9.872489929199219 12.17634105682373 -9.617469787597656 L 23.17634010314941 -1.617469787597656 C 23.6938304901123 -1.241120338439941 24 -0.6398696899414063 24 0 L 24 16 C 24 17.10457038879395 23.10457038879395 18 22 18 L 1.9073486328125e-06 18 C -1.104568481445313 18 -1.999998092651367 17.10457038879395 -1.999998092651367 16 L -1.999998092651367 0 C -1.999998092651367 -0.6398696899414063 -1.693828582763672 -1.241120338439941 -1.176338195800781 -1.617469787597656 L 9.823660850524902 -9.617469787597656 C 10.1743106842041 -9.872489929199219 10.58715629577637 -10 11.00000095367432 -10 Z" stroke="none" fill="#0075be"/>
    </g>
    <text id="_" data-name="@" transform="translate(5.2 21.6)" fill="#0075be" font-size="17" font-family="OpenSans-Bold, Open Sans" font-weight="700"><tspan x="0" y="0">@</tspan></text>
  </g>
</svg>
