<svg xmlns="http://www.w3.org/2000/svg" xmlns:xlink="http://www.w3.org/1999/xlink" width="26" height="29.424" viewBox="0 0 26 29.424">
  <defs>
    <clipPath id="clip-path">
      <rect width="26" height="29.424" fill="none"/>
    </clipPath>
  </defs>
  <g id="_link_" data-name="(link)" clip-path="url(#clip-path)">
    <path id="Path_133" data-name="Path 133" d="M41.829.07a.984.984,0,0,0-.618.936V7.542a26.341,26.341,0,0,0-4.53.618c-3.41.819-5.784,2.273-7.071,4.346-1.454,2.357-.217,5.918,3.711,10.615a62.456,62.456,0,0,0,5.918,6.051.967.967,0,0,0,.652.251h0a1.006,1.006,0,0,0,1-1,1.068,1.068,0,0,0-.167-.552c-.2-.351-1.17-2.173-2.073-4.229-1.755-4-1.772-5.466-1.688-5.9.167-.936,1.856-1.087,2.859-1.087a14.5,14.5,0,0,1,1.621.1l.334,6.035a.989.989,0,0,0,.6.869,1.014,1.014,0,0,0,1.053-.167l11.233-9.7a.993.993,0,0,0,.351-.719,1.033,1.033,0,0,0-.284-.752L42.916.288A1.027,1.027,0,0,0,41.829.07Zm1.387,3.393,9.344,9.528-8.893,7.673L43.4,15.851a1,1,0,0,0-.8-.919,15.573,15.573,0,0,0-2.775-.251c-3.594,0-4.614,1.488-4.831,2.742-.234,1.287.267,3.377,1.521,6.336-.552-.6-1.12-1.237-1.672-1.889-3.21-3.845-4.463-6.77-3.527-8.258,2.441-3.962,9.93-4.079,10.782-4.079h.1a1.025,1.025,0,0,0,.719-.284.972.972,0,0,0,.3-.719V3.464Z" transform="translate(-29.02 0)" fill="#0075be"/>
  </g>
</svg>
