<svg xmlns="http://www.w3.org/2000/svg" xmlns:xlink="http://www.w3.org/1999/xlink" width="34.813" height="34.813" viewBox="0 0 34.813 34.813">
  <defs>
    <clipPath id="clip-path">
      <rect width="34.814" height="34.814" fill="none"/>
    </clipPath>
  </defs>
  <g id="_edit_" data-name="(edit)" transform="translate(0 0)" clip-path="url(#clip-path)">
    <g id="Path_55" data-name="Path 55" transform="translate(2.157 9.657)" fill="#fff" stroke-linejoin="round">
      <path d="M 23 23 L 22 23 L -1.77635683940025e-15 23 L -1 23 L -1 22 L -1 -1.77635683940025e-15 L -1 -1 L -1.77635683940025e-15 -1 L 22 -1 L 23 -1 L 23 -1.77635683940025e-15 L 23 22 L 23 23 Z" stroke="none"/>
      <path d="M 0 0 L 0 22 L 22 22 L 22 0 L 0 0 M 0 -2 L 22 -2 C 23.10457038879395 -2 24 -1.104570388793945 24 0 L 24 22 C 24 23.10457038879395 23.10457038879395 24 22 24 L 0 24 C -1.104570388793945 24 -2 23.10457038879395 -2 22 L -2 0 C -2 -1.104570388793945 -1.104570388793945 -2 0 -2 Z" stroke="none" fill="#0075be"/>
    </g>
    <g id="Path_54" data-name="Path 54" transform="translate(20.719 7.856) rotate(45)" fill="#fff" stroke-linejoin="round">
      <path d="M 4.411303997039795 25.00510597229004 L 2.997083902359009 23.59088516235352 L -0.5384460091590881 20.05534553527832 L -1.124225974082947 19.46956634521484 L -1.124225974082947 18.64113616943359 L -1.124225974082947 -3.986284255981445 L -1.124225974082947 -5.986284255981445 L 0.8757740259170532 -5.986284255981445 L 7.946834087371826 -5.986284255981445 L 9.946833610534668 -5.986284255981445 L 9.946833610534668 -3.986284255981445 L 9.946833610534668 18.64113616943359 L 9.946833610534668 19.46956634521484 L 9.361054420471191 20.05534553527832 L 5.825523853302002 23.59088516235352 L 4.411303997039795 25.00510597229004 Z" stroke="none"/>
      <path d="M 0.8757734298706055 -3.986284255981445 L 0.8757734298706055 18.64113616943359 L 4.411303520202637 22.17667579650879 L 7.946833610534668 18.64113616943359 L 7.946833610534668 -3.986284255981445 L 0.8757734298706055 -3.986284255981445 M 0.8757734298706055 -7.986284255981445 L 7.946833610534668 -7.986284255981445 C 10.15597343444824 -7.986284255981445 11.94683361053467 -6.195425033569336 11.94683361053467 -3.986284255981445 L 11.94683361053467 18.64113616943359 C 11.94683361053467 19.70199584960938 11.52540397644043 20.71941566467285 10.77526378631592 21.46955490112305 L 7.239733695983887 25.00509643554688 C 6.489593505859375 25.75524520874023 5.472173690795898 26.17667579650879 4.411303520202637 26.17667579650879 C 3.350433349609375 26.17667579650879 2.333013534545898 25.75524520874023 1.582873344421387 25.00509643554688 L -1.952656745910645 21.46955490112305 C -2.702796936035156 20.71941566467285 -3.124226570129395 19.70199584960938 -3.124226570129395 18.64113616943359 L -3.124226570129395 -3.986284255981445 C -3.124226570129395 -6.195425033569336 -1.333366394042969 -7.986284255981445 0.8757734298706055 -7.986284255981445 Z" stroke="none" fill="#fff"/>
    </g>
    <path id="Path_56" data-name="Path 56" d="M.876-3.986H7.947v19.8L4.411,19.348.876,15.813Z" transform="translate(19.719 8.856) rotate(45)" fill="#fff" stroke="#0075be" stroke-linejoin="round" stroke-width="3"/>
    <rect id="Rectangle_166" data-name="Rectangle 166" width="6" height="7" transform="translate(19.414 10.45) rotate(-45)" fill="#0075be"/>
  </g>
</svg>
