<svg xmlns="http://www.w3.org/2000/svg" xmlns:xlink="http://www.w3.org/1999/xlink" width="24" height="24" viewBox="0 0 24 24">
  <defs>
    <clipPath id="clip-path">
      <rect width="24" height="24" fill="none"/>
    </clipPath>
  </defs>
  <g id="_phone_" data-name="(phone)" transform="translate(0)" clip-path="url(#clip-path)">
    <path id="Path_26" data-name="Path 26" d="M22.106,22.411a1.636,1.636,0,0,1-.17.139l-.849.524c-.031.015-.077.046-.108.062A10.272,10.272,0,0,1,16.826,24a8.7,8.7,0,0,1-6.237-2.422L2.577,13.573c-2.485-2.483-3.1-6.74-1.5-10.35a.624.624,0,0,1,.077-.139l.54-.818c.031-.046.077-.093.108-.139L3.241.694A2.363,2.363,0,0,1,4.908,0,2.176,2.176,0,0,1,6.437.632L10.6,4.8a2.266,2.266,0,0,1-.046,3.208L8.922,9.64,14.5,15.208l1.667-1.666a2.1,2.1,0,0,1,1.59-.679,2.26,2.26,0,0,1,1.575.648L23.5,17.676a2.462,2.462,0,0,1,.695,1.6,2.228,2.228,0,0,1-.633,1.681Zm.077-3.424-4.168-4.165a.4.4,0,0,0-.571.031l-2.316,2.314a.942.942,0,0,1-1.312,0L6.946,10.3a.952.952,0,0,1-.278-.648.888.888,0,0,1,.278-.648L9.231,6.694a.436.436,0,0,0,.046-.6L5.109,1.928a.28.28,0,0,0-.216-.093.532.532,0,0,0-.355.154L3.179,3.347l-.448.679a7.5,7.5,0,0,0,1.142,8.206l8.012,8.036a6.871,6.871,0,0,0,4.94,1.882,8.369,8.369,0,0,0,3.335-.679l.71-.432,1.374-1.373a.406.406,0,0,0,.093-.293A.729.729,0,0,0,22.183,18.987Z" transform="translate(-0.193)" fill="#0075be"/>
  </g>
</svg>
