<svg xmlns="http://www.w3.org/2000/svg" width="1144.094" height="699.183" viewBox="0 0 1144.094 699.183">
  <g id="области" transform="translate(-327.6 -304.843)">
    <path id="_33" data-name="33" d="M1525.413,827.981l-8.073,5.589h-3.105l-3.726.621-4.347-1.242-5.589-9.316-39.745,10.557-16.146,15.526,13.662,90.669L1406.8,954.669l-14.283-3.1-3.3-3.887a19.193,19.193,0,0,1,3.922,1.4l3.949-5.641c-.018-1.854-.533-4-.533-6.158,0-3.726-1.553-3.726-3.726-4.347s-1.863-3.416-2.174-6.21-4.658-3.726-5.9-4.968-3.726-2.484-2.795-4.658a27.224,27.224,0,0,1,2.484-4.347s-.932-4.347,1.242-4.968a13.875,13.875,0,0,1,3.416-.621,12.832,12.832,0,0,1,4.968-1.552,4.414,4.414,0,0,0,3.416-2.174s-1.863-4.347-1.863-5.9a33.757,33.757,0,0,1,.621-4.658L1395,888.22a8.871,8.871,0,0,0-1.552-4.657c-1.552-2.174-1.242-1.242-1.552-3.726s-.621-4.658-2.484-6.21-1.552-3.105-.932-9-1.242-4.347-2.794-4.658-2.484-3.416-3.416-5.9-4.968,1.242-6.21,6.21-4.347,2.174-6.521,6.21c-.932,4.968.932,8.073-2.174,8.694a12.676,12.676,0,0,0-7.452,5.589c-1.242,2.173-4.968.31-6.831.31s-1.863-2.794-1.863-4.658-2.795-1.552-4.037-3.1-2.173-5.279-3.726-4.347-4.347,2.795-6.21,1.863-4.968-3.726-5.9-2.174-5.9,3.416-7.452,2.174-3.105.621-4.037,1.863-9.626,1.553-9.626-.932a29.331,29.331,0,0,0-.31-4.347s-6.21-1.242-6.521-3.105-2.795-3.1-2.795-3.1-2.484.931-2.795-1.242-6.521-6.831-9-9-8.073-7.142-9.315-7.763a33.837,33.837,0,0,0-11.8-2.484c-4.968,0-4.658,2.484-6.21,2.484s-8.073-3.105-11.8.621c-3.253,3.253-8.871,5.638-10.659,7.294l-1.761-1.394-13.041-27.325,51.544-13.662,6.21-8.073.621-22.357-8.073-30.43,23.6-49.06-1.242-42.229,14.9-14.9,14.283,4.968,32.914,34.156,3.1,27.325,53.1-23.288,111.473,97.189Z" transform="translate(-56 26)" fill="rgba(65,147,199,0.4)" stroke="#fff" stroke-linejoin="round" stroke-width="2"/>
    <path id="_32" data-name="32" d="M1526.636,782.719l.019-.693-111.473-97.189-.019.008-10.44-9.166-12.1-143.408,60.518-112.678,14.9,20.487,52.14,118.265,6.517,224.424Z" transform="translate(-56 26)" fill="rgba(65,147,199,0.4)" stroke="#fff" stroke-linejoin="round" stroke-width="2"/>
    <path id="_31" data-name="31" d="M1392.62,532.271l12.1,143.408,10.439,9.166-53.078,23.28-1.552-13.662-1.552-13.662-16.457-17.078-16.457-17.078-13.691-4.762-12.861-20.214,13.035-26.074,10.242-56.8-8.379-7.45,13.035-19.555-36.312-60.529L1263.2,437.286l-16.759,45.63-49.652,35.074-56.176,21.729-78.072,1.362-12.863-26.506L1031.99,289.533l379.25,61.151,11.173,24.212,31.656,44.7.133,1.464-1.066-1.465Z" transform="translate(-56 26)" fill="rgba(65,147,199,0.4)" stroke="#fff" stroke-linejoin="round" stroke-width="2"/>
    <path id="Union_2" data-name="Union 2" d="M-17262.025-1367.624l-11.8-22.36v0l-40.99-3.417-.615.944-.057-.834.057.834-4.041,6.195-43.16-9-4.967-5.588-6.527,5.286-.668-2.678-4.658-12.421-12.709-47.677h0L-17408-1517.75l16.758-45.938,3.727-33.837-15.98-38.2,79.289-1.844,56.18-21.73,49.652-35.073,16.758-45.632,27.934,13.967,21.43,35.724,14.881,24.806-13.037,19.555,8.379,7.453-10.24,56.8-13.031,26.073,12.857,20.215-.59-.205-14.906,14.9,1.244,42.229-23.6,49.062.117.437,7.955,29.992-.619,22.355-6.213,8.074-51.543,13.666ZM-17274.484-1390.621Z" transform="translate(18408.818 2203.287)" fill="rgba(65,147,199,0.4)" stroke="#fff" stroke-linejoin="round" stroke-width="2"/>
    <path id="_27" data-name="27" d="M1061.511,834.192l22.978-44.713,6.2-7.755,6.527-5.286,4.968,5.589,43.161,9,4.658-7.142,40.987,3.416,11.8,22.357,21.425,12.731h0l13.041,27.325,1.761,1.394a1.934,1.934,0,0,0-.519.676c-.621,1.656-6,4.14-6,4.14s-2.691,1.449-2.691,3.519-1.656,5.382-2.277,7.452.621,3.726,3.726,2.07,3.105.621,4.14,1.242,1.035,1.656,2.691,2.9-1.242,4.347-1.242,4.347-4.14,4.347-2.484,6,1.035,8.28.414,9.729-2.277,6,1.242,9.729.828,4.554-.621,5.382-4.347,4.347-4.347,7.245-1.242,3.726-2.9,3.726h-4.14a8.557,8.557,0,0,1-6.474-.242,11.97,11.97,0,0,1-1.6-.793c-4.554-2.691-6.624,1.449-6.624,1.449s-1.656,2.691-2.9,3.1-3.105-.828-6.831-3.1-5.8,1.242-7.452,2.07-3.312,3.933-3.312,3.933-3.312,3.1-3.726,7.038-2.07,4.347-3.312,3.726-1.656-1.449-3.312.621a26.658,26.658,0,0,1-4.14,3.933s-5.589,2.07-6,3.726-4.14,2.691-5.175,3.105-.207,2.484-2.691,1.656-11.592-.621-11.592-.621a39.711,39.711,0,0,1-6.21,1.242c-1.656,0-3.933,1.656-4.347-2.9s-3.519-4.347-3.519-4.347-5.8,2.07-8.28-.621-4.554-.828-7.038-.207-5.175-.414-8.28-.828-10.35,6-12.213,6.624-6,1.035-9.315,1.449-6.831-2.691-7.452-4.14-2.07-3.105-2.9-5.175,2.07-6.624-1.656-6.21A34.476,34.476,0,0,1,1064,932.106c-3.726-1.449-6.624-1.449-8.694-.621s-8.487-4.761-8.28-3.519a3.221,3.221,0,0,1-.593,1.817l-1.063-1.817-3.1-13.042-27.325-13.042,14.9-31.672-5.589-19.873Zm199.968,110.541c.332.184.631.371.906.559C1262.109,945.1,1261.811,944.917,1261.479,944.733Z" transform="translate(-56 26)" fill="rgba(65,147,199,0.4)" stroke="#fff" stroke-linejoin="round" stroke-width="2"/>
    <path id="_25" data-name="25" d="M1061.32,541.564l15.982,38.2-3.725,33.836-16.759,45.939,28.552,107.09,4.654,12.418.669,2.679-6.2,7.755-22.978,44.713-37.261,16.147,5.589,19.873-14.9,31.672,27.325,13.042,4.347,11.489-.171,3.254c-.374.542-1.312,1.972-2.727,4.095-1.242,1.863-1.449.621-4.554,5.8s-3.105,2.484,1.449,10.971,1.346,9.419-.207,10.35-4.036,3.416-5.589,4.347-3.416-2.484-4.658-2.484a7.066,7.066,0,0,1-4.658-1.242c-1.553-1.242-3.416,1.553-5.279,1.863s-6.521-.31-8.073,0-3.416-2.484-4.347-4.657.31-5.279-3.416-4.658a24.477,24.477,0,0,1-13.663-1.552c-5.279-2.174-2.484.31-4.347,1.552s-6.831,2.174-7.763,3.416-6.21,3.1-8.694,4.037-3.726,0-6.831,5.279A8.493,8.493,0,0,1,961.1,969.2l9.2-17.952-.632-6.829-8.694-9,7.763-17.7-3.416-24.53,4.658-22.357L961.9,852.2l-.621-22.667-45.586-34.348,16.645-35.827-9.315-50.3-12.731-32.293-1.242-35.709-9.06-12.545-3.05-4.844-2.174-18.32-.141-.153-.13-1.072-.04-.328L880.484,589.2l-.232-.081,2.716-13.582,44.4.931,31.672-32.293,91.258-29.909,12.291,27.268Zm-14.891,388.221.006-.118C1046.676,929.318,1046.685,929.335,1046.429,929.785Z" transform="translate(-56 26)" fill="rgba(65,147,199,0.4)" stroke="#fff" stroke-linejoin="round" stroke-width="2"/>
    <path id="_26" data-name="26" d="M970.3,951.251l-9.2,17.963c-2.144,1.7-3.748.157-4.229,1.6-.621,1.863-3.416,2.173-5.589.931s-5.279.311-5.9,3.105c-.341,1.534-1.9,1.754-3.437,1.439q.03.366.065.734h-5.92a4.379,4.379,0,0,1,2.005-1.926l.141-.707c-1.257-.716-2.979-.66-4.033-1.714-1.242-1.242.311-4.347.311-6.21s-3.726,1.242-5.9,3.726-4.037-1.863-6.521-1.242-3.416-.932-3.416-.932-.31-5.9-1.863-5.589-5.589-3.726-5.589-3.726-4.658-9.315-5.9-10.868-3.726-3.416-7.763-.932-6.21,1.552-8.384,1.552-3.416-1.242-4.968-2.484-2.484-.311-2.795-2.795,2.174-1.863-2.174-3.105-3.726,4.036-5.9,5.9-3.416-2.795-3.726-4.968-.621-2.794-1.863-3.415-.621-4.658-.932-5.9-.931-6.21-2.173-7.763a11.5,11.5,0,0,1-2.484-5.589c-.311-2.174-.311-5.279-2.174-6.831s-4.036-8.384-4.657-10.557-2.795-.931-5.279-4.658,2.174-5.589,2.174-5.589c2.277-4.554-5.175-2.07-6.831-1.656s-3.519,1.656-5.382,1.242-1.242-.414-1.863,1.449-2.691,1.242-5.382,1.449-2.9,2.691-4.347,3.726-4.14-2.07-5.175-3.312-2.277,1.863-3.726,2.691-1.863-.828-1.656-3.519,5.382-1.242,6.624-2.691-.621-1.449-1.656-2.9-2.484,1.035-4.347,1.035-.828-4.14-1.863-4.14-1.449,3.726-2.691,3.933-1.035-2.691-.621-4.968-1.035-4.14-3.519-3.312-2.691,2.277-3.933,1.863a15.207,15.207,0,0,0-2.9-.828c-1.242-.207-.207-2.07,1.035-4.14s1.656-3.312,1.035-4.761a8.81,8.81,0,0,1,0-5.175c.414-1.242-.621-4.14-3.105-3.105s-4.14-.207-4.14-1.656-.414-.828-1.242-1.656-3.726-1.242-5.175-2.277a13.563,13.563,0,0,0-1.148-.765l7.892-9.272,19.649-23.084,14.284-2.795,37.261-27.946,4.658-5.589,18.941,7.142,22.612-.119.178-.383,45.586,34.348L961.9,852.2l8.073,18.63-4.658,22.357,3.416,24.53-7.763,17.7,8.694,9Z" transform="translate(-56 26)" fill="rgba(65,147,199,0.4)" stroke="#fff" stroke-linejoin="round" stroke-width="2"/>
    <path id="Union_1" data-name="Union 1" d="M-17342.922-1577.144a4.349,4.349,0,0,0-1.717-.044c-.133.048-.268.1-.416.153l-2.066-1.188-8.078-16.457-.93-11.49,3.416-.62,10.559-5.588,4.033-26.707-.289-.551h0l-.594-.057-9-17,.469.887-19.77-7.187-9.328-7.6s0,0,0,.009l-.961-.8-11.727-9.743-10.586-18.821-8.09-4.046,9.641-11.171-4.762-15.007-.523-1.311,5.7-4.072,1.141-1.035,2.674-.743,8.5-2.674,16.279,6.239.117.948,6.584,9.271,10.865,6.833,1.109.354.225-.127,12.092,2.08,15.453,2.661,14.09-2.813.361.153-.219.048,21.705-4.6.953,1.485,22.73,9.148-2.176,14.9-5.277,22.98-5.9,5.9-3.727,18.323-4.658,4.347-2.48,5.588,7.764,4.657,23.906,34.156-.145.3c-.043-.017-.088-.022-.131-.035s-.109-.031-.166-.044a2.059,2.059,0,0,0-.293-.052,1.49,1.49,0,0,0-.2-.026,2.939,2.939,0,0,0-.393,0c-.092,0-.193.017-.289.031-.061.009-.121.017-.187.031a3.084,3.084,0,0,0-.332.083c-.049.013-.1.031-.145.048a5.3,5.3,0,0,0-1.293.668c-.035.026-.064.044-.1.066v0c-.088.061-.172.109-.258.175-2.691,2.071-4.969,3.521-7.66,2.9a37.593,37.593,0,0,0-4.557-.83,6.638,6.638,0,0,0-2.205.24,6.2,6.2,0,0,1-2.762.175c-1.656-.415-3.311-1.035-3.932.205-.363.721-2.049.188-3.723-.349a9.416,9.416,0,0,0-3.109-.682c-1.656.205-3.312,2.687-4.758,2.066a2.784,2.784,0,0,1-.254-.124v0l-.033-.021a6.919,6.919,0,0,1-.84-.591v-.009h0c-1.176-.939-2.5-2.259-4.051-1.948-2.07.415-8.9-.62-10.555-.826a17.75,17.75,0,0,0-2.967.1,14.787,14.787,0,0,1-4.7-.1c-2.07-.62-5.172-1.656-7.037-3.932s-3.312-1.45-4.967.62-1.242,4.137,0,4.967-.207,2.481-.207,2.481-.209.83,2.482,3.316,1.66,4.552.209,5.173-2.484-1.45-3.521-2.481-1.654-3.936-5.8-1.45-3.932,6.418-4.553,8.9c-.283,1.133-1.213,1.4-2.238,1.4A11.591,11.591,0,0,1-17342.922-1577.144Z" transform="translate(17989.338 2480.024)" fill="rgba(65,147,199,0.4)" stroke="#fff" stroke-linejoin="round" stroke-width="2"/>
    <path id="_15" data-name="15" d="M842.6,624.908l-3.105,30.43,4.036,9.315-7.452,9.936-12.11,5.279-18.32,3.726-27.946,19.252-20.273,32.942-.841-.339-4.012.114-4.347.931-9.323,2.5-16.474,3.29-15.452-2.659-13.425-2.31-10.868-6.831-6.581-9.273.189-.438,10.428-24.134L684.552,683.9l38.814-13.662,5.589-13.662,18.32-7.142,35.709,12.42,6.521-4.037,3.726-7.452,7.452-35.4s1.863-13.042,13.662-8.694c8.088,2.98,24.053,7.418,33.3,9.915Z" transform="translate(-56 26)" fill="rgba(65,147,199,0.4)" stroke="#fff" stroke-linejoin="round" stroke-width="2"/>
    <g id="_9" data-name="9" transform="translate(-56 26)" fill="rgba(65,147,199,0.4)" stroke-linejoin="round">
      <path d="M 466.0687255859375 638.140380859375 C 465.8447875976563 638.140380859375 465.6300964355469 638.1201171875 465.4306640625 638.0802612304688 C 465.0357360839844 638.001220703125 463.429931640625 637.0108642578125 459.3497924804688 627.5853271484375 C 457.3306579589844 622.9207763671875 455.6038513183594 618.2620239257813 455.294189453125 617.41943359375 L 460.7475891113281 591.97021484375 L 465.4902648925781 593.0242309570313 L 467.9398803710938 618.7451171875 L 467.9472351074219 618.8228149414063 L 467.97802734375 618.8945922851563 L 469.7859191894531 623.1129760742188 L 469.1847229003906 627.3214111328125 L 469.1663818359375 627.4501953125 L 469.2130737304688 627.5715942382813 L 472.1878967285156 635.3065795898438 C 471.3007507324219 636.0081176757813 468.4112548828125 638.140380859375 466.0687255859375 638.140380859375 Z" stroke="none"/>
      <path d="M 461.130859375 592.567626953125 L 455.8133544921875 617.3824462890625 C 456.220947265625 618.486572265625 457.83984375 622.8223266601563 459.731201171875 627.207275390625 C 461.005126953125 630.16064453125 462.1488037109375 632.5523071289063 463.130615234375 634.3157348632813 C 464.7601928710938 637.24267578125 465.4754638671875 637.5679931640625 465.537841796875 637.5916748046875 C 465.7027587890625 637.6239013671875 465.88134765625 637.6403198242188 466.06884765625 637.6403198242188 C 467.9090576171875 637.6403198242188 470.324462890625 636.1019287109375 471.5889282226563 635.1422729492188 L 468.7462768554688 627.7510375976563 C 468.68505859375 627.591796875 468.6655883789063 627.4195556640625 468.6897583007813 627.2506713867188 L 469.2710571289063 623.1810913085938 L 467.5184326171875 619.091552734375 C 467.4776611328125 618.9964599609375 467.4518432617188 618.8955078125 467.4420776367188 618.79248046875 L 465.0269165039063 593.4334716796875 L 461.130859375 592.567626953125 M 1032.015747070313 289.2716064453125 L 1032.03857421875 289.5399780273438 L 1032.015747070313 289.2716064453125 Z M 460.3641357421875 591.372802734375 L 465.9534912109375 592.614990234375 L 468.4375610351563 618.6976318359375 L 470.3006591796875 623.044921875 L 469.6796264648438 627.39208984375 L 472.78466796875 635.465576171875 C 472.78466796875 635.465576171875 469.0807495117188 638.6402587890625 466.06884765625 638.6402587890625 C 465.8176879882813 638.6402587890625 465.5716552734375 638.6182861328125 465.3326416015625 638.5704345703125 C 462.2274169921875 637.94921875 454.7750244140625 617.455810546875 454.7750244140625 617.455810546875 L 460.3641357421875 591.372802734375 Z" stroke="none" fill="#fff"/>
    </g>
    <path id="_9-2" data-name="9" d="M915.516,795.57l-22.612.119-18.941-7.142-4.658,5.589-37.261,27.946-14.284,2.794L790.841,856.5l-1.337.046-23.614-33.227-8.891-4.9,2-5.865,5.357-6.074,3.207-16.974,6.789-6.978,5.469-21.689,1.133-14.522-23.523-10.527,20.273-32.942,27.946-19.251,18.32-3.726,12.11-5.279,7.452-9.936-4.037-9.315,3.105-30.43,5.04-8.715,18.249-24.2,5.431-5.982,9.163,3.188,13.973,14.594,2.484,20.494,12.11,16.768,1.242,35.709,12.731,32.293,9.315,50.3Z" transform="translate(-56 26)" fill="rgba(65,147,199,0.4)" stroke="#fff" stroke-linejoin="round" stroke-width="2"/>
    <path id="_6" data-name="6" d="M-11.312,14.722,14.271-14.333l7.828,3.3L32.863,8.779l21.408,17.7L37.16,50.843Z" transform="translate(567.729 790.407)" fill="rgba(65,147,199,0.4)" stroke="#fff" stroke-width="2"/>
    <path id="_5_" data-name="5 " d="M703.183,841.644l-10.557,5.589-3.415.621.931,11.489,8.073,16.457,2.071,1.19c-1.01.357-2.278.673-2.278.673a10,10,0,0,1-.207,3.312c-.414,1.035-.207,2.07,1.449,3.519s2.07.828,3.519,3.312,3.312,1.656,3.933,4.14-3.1,2.07-3.312,3.726-1.863,3.726-3.933,2.07a7.911,7.911,0,0,0-5.175-2.07c-2.07-.207-1.449-1.863-3.312-4.14s-5.589,5.175-6.624,4.347-.621-3.519-2.691-4.347-2.691-6-3.1-7.866-2.9-3.105-4.761-3.519-3.312.828-5.8-.414,0-.621-1.656-2.9-3.726-2.691-4.347-1.656-3.312.207-4.968,0-2.691,1.449-4.347,1.656-2.484-1.863-2.9-3.312-1.035-5.175-3.105-4.968-2.07,3.519-3.519,4.14-1.242.621-1.035-1.656,2.07-4.347,1.449-5.382-.621-2.691-2.277-6.417-2.691-4.554-3.312-6-2.277-.207-3.726-1.449.621-2.484-2.07-5.8-3.933,1.656-6,1.656-1.035-3.933-1.656-5.175-5.8-3.519-7.245-1.863-8.28,2.277-10.764.207-3.519,2.277-3.519,2.277-4.347,1.449-7.452,1.035-3.726,6-4.347,7.038-2.277,0-4.347-1.035.207-4.761,1.035-6.417-1.035-3.933-1.863-5.589a.8.8,0,0,0-.306-.33l1.03-.5-11.8-13.352-.311-9.315-12.42-6.832-5.9.31-.2-.363,3.93-10.194,10.247-8.694,8.073-13.042,16.767-8.073,16.385,10.534-.1.072-.164.123L661.088,815l14.637-21,2.235-2.867.072-.1,20.494,7.452,8.694,16.457Z" transform="translate(-56 26)" fill="rgba(65,147,199,0.4)" stroke="#fff" stroke-linejoin="round" stroke-width="2"/>
    <path id="_4" data-name="4" d="M404.473,783.889,384.6,808.109l40.366,47.2,20.494-15.525,6.831-10.557,13.973-6.831S436.766,795.688,404.473,783.889Z" transform="translate(-56 26)" fill="rgba(65,147,199,0.4)" stroke="#fff" stroke-linejoin="round" stroke-width="2"/>
    <path id="_3" data-name="3" d="M572.148,843.507c-2.07.828-3.105,6.21-4.14,7.245s-.828,1.863-3.105,1.449-3.312,1.035-4.968,3.312.828,5.589,1.449,7.452-1.242,2.484-2.277,5.382,2.277,3.519,3.726,3.519,3.312,2.07,3.726,5.589,0,13.455-1.863,14.7-1.449-.621-1.449-.621-1.863-4.14-3.312-.828c-1.159,4.635,1.63,5.825,2.987,7.114a5.5,5.5,0,0,1,3.622.115,1.885,1.885,0,0,0,.015.224c1.242,5.589-19.873,37.261-24.22,40.366s1.242,6.21,1.242,9.315-22.357,1.863-22.357,1.863l-2.394,3.989c-1.136.594-2.575,1.289-3.61.772-1.656-.828-4.14-.414-7.038.621s-3.312-1.035-3.726-2.691.414-3.312,0-4.968a17.8,17.8,0,0,1-.828-4.968c0-2.07-.621-2.484-1.863-3.312a2.012,2.012,0,0,1-.77-1.154,1.757,1.757,0,0,1-.141-.577,16.141,16.141,0,0,0-.538-2.823c-.621-1.656-2.277-3.105-3.105-4.761s1.656-2.07,1.863-3.519-.828-3.726-1.656-6.21a24.454,24.454,0,0,0-2.484-4.968s-3.1-.828-3.933-2.484-5.175-.414-6.21-1.242-.207-4.554-1.242-5.8a7.244,7.244,0,0,1-1.863-4.968c0-2.277-1.863-4.14-2.9-4.347s-2.07-1.656-2.07-1.656-2.277-3.726-3.726-4.347-1.656,0-2.691-3.1-1.656-2.07-2.691-4.14-.828-5.8-2.277-5.8a2.081,2.081,0,0,1-1-.294c-.789-1.967-1.517-3.137-2.108-3.018-.036.007-.077.027-.114.038-.04-.153.049-.5-.093-.452-1.235.408-2.207,2.034-3.616,3.842a163.6,163.6,0,0,0-9.839,13.96L433.039,864l-7.452-8.384s.657-.834,1.99-2.288l17.883-13.548,6.831-10.557,10.083-4.929a6.31,6.31,0,0,0,3.588-1.754l.3-.148-.079-.071c.062-.062.124-.118.187-.183.71.225,6.148-2.459,7.034-2.54,3.416-.311,4.658.621,6.831.621a9.321,9.321,0,0,1,2.682.474c-.11-.528-1.138-6.108,4.978-4.924,6.417,1.242,5.8.414,8.073,2.07s3.726,4.347,4.554,4.347-.828-.621,3.105-1.242a4.048,4.048,0,0,0,3.726-4.14s-1.242-4.347,1.863-3.519,3.105-1.242,3.105-1.242-1.863-2.277,2.691-2.691c3.546-.322,3.951-2.4,3.567-3.792l2.022.687,31.051,3.726,4.454-2.226.2.363,5.9-.31,12.42,6.831.31,9.315,11.8,13.352-6.418,3.1c-.427.363-.817.721-1.138,1.041C577.323,843.3,574.218,842.679,572.148,843.507Z" transform="translate(-56 26)" fill="rgba(65,147,199,0.4)" stroke="#fff" stroke-linejoin="round" stroke-width="2"/>
    <path id="_2" data-name="2" d="M-17284.416-1296.9l-57.135-42.233-.24-.057-14.662-3.665-4.967,3.1-22.98-6.208-14.9,8.279-1.035-.974c.021-.1.045-.21.066-.319.014-.057.021-.114.035-.175.047-.227.1-.454.135-.682a1.559,1.559,0,0,0,.035-.175c.039-.179.07-.349.1-.52.014-.061.023-.118.031-.179.039-.205.074-.406.105-.585a.6.6,0,0,1,.012-.083c.023-.153.045-.288.059-.415,0-.035.008-.074.012-.109.014-.135.027-.253.027-.336a1.865,1.865,0,0,0-.521-1.411c-.279-.384-.7-.935-1.34-1.9,0-.009-.01-.009-.014-.018a3.082,3.082,0,0,0-.3-.376,1.072,1.072,0,0,0-.109-.1,2.272,2.272,0,0,0-.209-.188c-.045-.031-.088-.048-.127-.074a1.75,1.75,0,0,0-.205-.114c-.045-.017-.088-.031-.131-.044a1.666,1.666,0,0,0-.207-.065,1.132,1.132,0,0,0-.131-.018c-.068-.009-.139-.017-.209-.022-.039,0-.078,0-.123,0a1.892,1.892,0,0,0-.223.013l-.1.013c-.088.013-.17.026-.254.044l-.057.013c-.363.079-.717.192-1.035.258a.036.036,0,0,1-.018,0c-.088.017-.166.031-.25.039h-.047a1.156,1.156,0,0,1-.211,0,.205.205,0,0,1-.051-.009.921.921,0,0,1-.189-.039.231.231,0,0,1-.047-.022.587.587,0,0,1-.17-.087c-.014-.009-.023-.026-.035-.035a.966.966,0,0,1-.158-.162l-.2-.489c-.51-1.8,2.32-3.714,2.32-3.714l0-.009a16.538,16.538,0,0,1-1.652-3.718,5.5,5.5,0,0,0-.371-1.376,10.272,10.272,0,0,0-1.078-1.73,2.364,2.364,0,0,0-.338-.363c-.025-.022-.047-.039-.068-.061a4.36,4.36,0,0,0-.424-.31v0l.379-1.311c.1-.035.2-.057.293-.1a5.808,5.808,0,0,0,2.6-3.176,15.948,15.948,0,0,0,.869-2.744.015.015,0,0,1,0-.009,10.372,10.372,0,0,1,1.014-2.613c.01-.018.014-.035.023-.052a3.481,3.481,0,0,0,.205-.642c.092-.463.781-.682,1.7-.983a9.148,9.148,0,0,0,3.885-2.119c1.279-1.285,1.117-2.04.732-2.752a3.8,3.8,0,0,1-.732-1.8v-.013a3.026,3.026,0,0,1,.855-2.123c.053-.057.113-.127.162-.17a2.82,2.82,0,0,1,.223-.183s6.213-.62,6.213-2.486c0-.363,0-.664.018-.939.314-.249.637-.516.965-.8.459-.4.852-.721,1.215-1.014a4.825,4.825,0,0,0,1.787-.743.057.057,0,0,1,.021-.017,5.547,5.547,0,0,0,.471-.358c.031-.026.053-.052.08-.074.127-.114.248-.232.361-.354.049-.052.088-.1.131-.157.084-.1.172-.205.246-.31s.109-.183.16-.275a2.219,2.219,0,0,0,.137-.227,3.668,3.668,0,0,0,.205-.524c.41-1.446,1.035-1.861,2.48-2.482s4.764-.21,6.623-.83c1.115-.371,1.932.293,2.674.931l.018-.153s-.262-.3-.6-.769a11.338,11.338,0,0,1-.816-1.289c-.014-.022-.027-.044-.039-.066a.052.052,0,0,1-.01-.022c-.088-.162-.17-.328-.24-.494a.139.139,0,0,0-.014-.022c-.166-.376-.336-.773-.516-1.171-.018-.039-.029-.074-.047-.114a2.2,2.2,0,0,0,1.66-1.18c1.24-3.106-7.453-10.555-4.969-12.421s4.969,3.727,11.182,4.347c3.193.319,4.74.149,5.49-.1.271.127.551.245.826.358.057.026.109.048.166.07.541.214,1.084.4,1.59.564l.18.052c.236.074.467.144.682.205h0a1.116,1.116,0,0,1,.066-.218c.191-.389,1.66-.537,3.621-.551,4.324-.039,11.049.551,11.9.551,1.246,0,14.906,0,22.98-2.176s5.9-10.245,5.588-14.282c-.057-.76-.092-1.363-.092-1.852.018-2.115.791-2.049,3.818-2.8,3.727-.935,3.416-2.486,3.416-2.486s1.24-1.865,2.176-3.106,2.172-1.861,2.172-4.657,4.346-3.106,4.967-5.588,6.832-1.555,9-4.657c.244-.354.494-.743.734-1.149.049-.079.1-.157.145-.236q.34-.59.682-1.232c.057-.109.109-.218.166-.328.191-.376.385-.76.572-1.153.064-.135.131-.266.191-.406.176-.371.346-.747.516-1.127.092-.205.18-.4.268-.6.131-.312.973-.624,1.326-.933l-.27-.286c.568-1.385,1.148-2.888,1.73-4.487a4.344,4.344,0,0,1,2.783-2.215,14.681,14.681,0,0,1,4.688-.7,11.4,11.4,0,0,1,3.389.428,3.866,3.866,0,0,0,1.211.227,1.758,1.758,0,0,0,1.73-1.184,7.9,7.9,0,0,0,.393-2.149c.035-.341.066-.69.113-1.027.293-2.031,2.377-5.033,2.4-5.059l.123-.179-.039-.21-.887-4.439c.717-.957,4.355-5.64,8.414-8.074a6.378,6.378,0,0,1,3.338-1,7.431,7.431,0,0,1,2.621.529l.4.149.209-.367a4.906,4.906,0,0,1,2.652-2.364c.131-.044.24-.087.344-.131l14.291,3.246.258.061.188-.179,45.043-41.333,10.223,7.217.355.249.3-.31,80.111-83.218.3-.315-.271-.345-4.678-5.846,144.8-135.211,64.223,9.856,17.641,224.423-90.254,29.577-.115.039-.086.087-31.518,32.137-44.191-.926-.414-.009-.084.411-2.607,13.019-8.389-2.918-.311-.109-.223.245-5.43,5.985-.018.013-.014.022-18.043,23.928c-3.861-1.044-9.541-2.6-15.27-4.26-7.934-2.289-13.871-4.159-17.658-5.553a13.487,13.487,0,0,0-4.645-.922c-3.389,0-6.146,1.747-7.969,5.05a16.414,16.414,0,0,0-1.717,4.946l-7.436,35.318-2.687,5.378-.943,1.892-6.2,3.836-35.482-12.342-.176-.061-.17.07-17.594,6.859-.066-.352-.318,1.034-.16.066-5.588,13.661-38.42,13.526-.287.065.012.031-.119.039,2.172,12.731-10.428,24.138-.187.437-.123-.944-16.273-6.239-1.342.419h0l-7.164,2.25-2.674.743-1.141,1.035-5.7,4.076Z" transform="translate(17868.254 2045.311)" fill="rgba(65,147,199,0.4)" stroke="#fff" stroke-linejoin="round" stroke-width="2"/>
    <path id="_1" data-name="1" d="M615.619,775.195l-3.541,3.9-4.994-3.292-11.959-8.057-16.767,8.073-8.073,13.042-10.247,8.694-3.93,10.195-4.454,2.226L520.6,806.246l-2.022-.687a2.773,2.773,0,0,0-.462-.969c-.828-1.035-.828-.828-.621-2.277s1.449-2.9-.621-3.933-3.105-3.933-4.347-6.417-3.726-2.9-3.519-6.625.621-6.624-1.242-7.452-4.554-1.656-5.382-3.519-1.863-4.761-3.726-7.038-1.863-1.656-.414-4.347,1.656-5.382,1.863-8.281-2.07-3.105-3.105-4.554,1.242-3.726,2.277-5.589,1.449.207,3.312-2.277,3.519-2.484,4.14-5.8-3.726-5.175-5.8-6-5.382-5.382-8.073-4.14c-.967.447-2.534-.365.828-6.417,1.035-1.863,2.691-9.108,4.761-10.35s1.242,2.9,3.933,1.449,7.659,1.035,7.659,1.035,2.9,2.277.828-4.968,6.831-18.216,8.487-19.872,3.933-3.726,3.933-3.726.1-.438.243-1.078l16.317-9.065,22.978,6.21,4.968-3.105,14.9,3.726,57.134,42.229,1.854.14.527,1.309,4.761,15.008Z" transform="translate(-56 26)" fill="rgba(65,147,199,0.4)" stroke="#fff" stroke-linejoin="round" stroke-width="2"/>
    <g id="_8" data-name="8" transform="translate(-56 26)" fill="none" stroke-linejoin="round">
      <path d="M1526.636,772.719l-1.224,55.262-8.073,5.589h-3.105l-3.726.621-4.347-1.242-5.589-9.315-39.745,10.557-16.146,15.526,13.662,90.668L1406.8,954.669l-14.284-3.105-3.3-3.887a19.185,19.185,0,0,1,3.922,1.4l3.949-5.641c-.018-1.854-.533-4.005-.533-6.158,0-3.726-1.552-3.726-3.726-4.347s-1.863-3.416-2.174-6.21-4.658-3.726-5.9-4.968-3.726-2.484-2.795-4.658a27.222,27.222,0,0,1,2.484-4.347s-.932-4.347,1.242-4.968a13.873,13.873,0,0,1,3.416-.621,12.831,12.831,0,0,1,4.968-1.552,4.415,4.415,0,0,0,3.416-2.174s-1.863-4.347-1.863-5.9a33.761,33.761,0,0,1,.621-4.658L1395,888.22a8.871,8.871,0,0,0-1.552-4.657c-1.553-2.174-1.242-1.242-1.553-3.726s-.621-4.658-2.484-6.21-1.552-3.105-.931-9.005-1.242-4.347-2.794-4.658-2.484-3.415-3.416-5.9-4.968,1.242-6.21,6.211-4.347,2.174-6.521,6.21c-.931,4.968.932,8.073-2.173,8.694a12.677,12.677,0,0,0-7.452,5.589c-1.242,2.173-4.968.31-6.831.31s-1.863-2.795-1.863-4.658-2.795-1.552-4.037-3.1-2.173-5.279-3.726-4.347-4.347,2.795-6.21,1.863-4.968-3.726-5.9-2.174-5.9,3.416-7.452,2.174-3.105.621-4.037,1.863-9.626,1.553-9.626-.931a29.345,29.345,0,0,0-.31-4.347s-6.21-1.242-6.521-3.1-2.795-3.105-2.795-3.105-2.484.932-2.795-1.242-6.521-6.831-9-9-8.073-7.142-9.316-7.763a33.836,33.836,0,0,0-11.8-2.484c-4.968,0-4.658,2.484-6.21,2.484s-8.073-3.105-11.8.621c-3.253,3.253-8.871,5.638-10.659,7.293l-1.761-1.393-13.041-27.325h0l-21.425-12.731-11.8-22.357-40.987-3.416-4.658,7.142-43.161-9-4.968-5.589-6.527,5.286-.67-2.679-4.653-12.418-28.552-107.089,16.759-45.94,3.725-33.836-15.982-38.2.138,0-11.779-26.985L1031.99,289.532l379.25,61.151,11.173,24.212,31.656,44.7.133,1.464-1.066-1.465h0l14.9,20.487,52.141,118.265,6.517,224.424Z" stroke="none"/>
      <path d="M 1406.739990234375 952.610107421875 L 1456.100830078125 938.9315185546875 L 1442.702514648438 850.0152587890625 C 1442.605834960938 849.3737182617188 1442.826416015625 848.7252197265625 1443.2939453125 848.2755737304688 L 1459.440307617188 832.7499389648438 C 1459.684936523438 832.5147705078125 1459.985229492188 832.3457641601563 1460.313110351563 832.2586059570313 L 1500.058471679688 821.7010498046875 C 1500.229125976563 821.65576171875 1500.401489257813 821.6339111328125 1500.572021484375 821.6339111328125 C 1501.261962890625 821.6339111328125 1501.919311523438 821.9923706054688 1502.286865234375 822.6051635742188 L 1507.469604492188 831.243408203125 L 1510.624145507813 832.1446533203125 L 1513.905395507813 831.59765625 C 1514.01416015625 831.5794677734375 1514.124145507813 831.5704345703125 1514.234252929688 831.5704345703125 L 1516.714721679688 831.5704345703125 L 1523.435546875 826.9174194335938 L 1524.53369140625 777.3196411132813 L 1518.188354492188 558.7938842773438 L 1466.292114257813 441.0831604003906 L 1451.519775390625 420.7691650390625 C 1451.271118164063 420.4273376464844 1451.13720703125 420.0154113769531 1451.13720703125 419.5927429199219 C 1451.13720703125 419.3980712890625 1451.165405273438 419.2083435058594 1451.218383789063 419.0281677246094 L 1420.78125 376.0508422851563 C 1420.71044921875 375.9507446289063 1420.64892578125 375.8443298339844 1420.597412109375 375.73291015625 L 1409.870971679688 352.4878845214844 L 1034.18359375 291.9118041992188 L 1051.647216796875 514.0840454101563 L 1063.291259765625 540.7609252929688 C 1063.393432617188 540.9949340820313 1063.448364257813 541.2425537109375 1063.457153320313 541.4906005859375 L 1079.147338867188 578.9890747070313 C 1079.2783203125 579.3019409179688 1079.327514648438 579.6428833007813 1079.290405273438 579.9799194335938 L 1075.565185546875 613.8158569335938 C 1075.547607421875 613.9751586914063 1075.510986328125 614.1318359375 1075.4560546875 614.2824096679688 L 1058.9130859375 659.6300659179688 L 1087.27734375 766.0159301757813 L 1091.848266601563 778.2135620117188 L 1095.9609375 774.882568359375 C 1096.33056640625 774.5831909179688 1096.77587890625 774.4367065429688 1097.218872070313 774.4367065429688 C 1097.771362304688 774.4367065429688 1098.320434570313 774.6646118164063 1098.714599609375 775.1079711914063 L 1103.243530273438 780.203125 L 1144.419921875 788.7939453125 L 1148.331176757813 782.7965698242188 C 1148.702270507813 782.2275390625 1149.334106445313 781.8890380859375 1150.005981445313 781.8890380859375 C 1150.061279296875 781.8890380859375 1150.116821289063 781.891357421875 1150.172607421875 781.89599609375 L 1191.15966796875 785.3115844726563 C 1191.839721679688 785.3682250976563 1192.44384765625 785.7676391601563 1192.762329101563 786.3711547851563 L 1204.298828125 808.2295532226563 L 1225.222045898438 820.6622314453125 C 1225.56396484375 820.860595703125 1225.846313476563 821.15966796875 1226.023315429688 821.5306396484375 L 1238.864624023438 848.4367065429688 L 1239.052368164063 848.5852661132813 C 1239.77587890625 848.106201171875 1240.638671875 847.6008911132813 1241.619018554688 847.0267333984375 C 1243.794311523438 845.7527465820313 1246.501586914063 844.1671752929688 1248.265747070313 842.4030151367188 C 1249.871337890625 840.7974853515625 1252.016479492188 839.9833984375 1254.641357421875 839.9833984375 C 1256.779907226563 839.9833984375 1258.7841796875 840.5113525390625 1260.24755859375 840.8968505859375 C 1260.584106445313 840.9854736328125 1260.978149414063 841.0892944335938 1261.25 841.1492309570313 C 1261.281372070313 841.1179809570313 1261.312744140625 841.0863647460938 1261.340942382813 841.0579223632813 C 1262.468017578125 839.923095703125 1263.981079101563 838.7123413085938 1267.689575195313 838.7123413085938 C 1272.890747070313 838.7123413085938 1278.796630859375 840.6143188476563 1280.382934570313 841.4074096679688 C 1281.509521484375 841.9705200195313 1284.226196289063 844.2781372070313 1289.170776367188 848.6202392578125 C 1289.520141601563 848.9271850585938 1289.840576171875 849.2085571289063 1290.121337890625 849.4541625976563 C 1290.596435546875 849.8698120117188 1291.217163085938 850.38330078125 1291.936157226563 850.9778442382813 C 1293.370483398438 852.1639404296875 1295.155517578125 853.6400756835938 1296.607177734375 855.0399169921875 C 1298.492797851563 856.8579711914063 1299.448852539063 858.178955078125 1299.730834960938 859.375 C 1299.80322265625 859.3605346679688 1299.8681640625 859.3432006835938 1299.912231445313 859.328857421875 C 1300.139526367188 859.23828125 1300.369995117188 859.1947631835938 1300.599609375 859.1947631835938 C 1300.904296875 859.1947631835938 1301.207275390625 859.2715454101563 1301.498168945313 859.4170532226563 C 1301.833129882813 859.5845336914063 1304.688720703125 861.0812377929688 1305.310791015625 863.6847534179688 C 1305.5263671875 863.855224609375 1306.189819335938 864.2874145507813 1307.877197265625 864.81884765625 C 1309.1494140625 865.219482421875 1310.300659179688 865.45263671875 1310.311157226563 865.4547729492188 C 1311.126098632813 865.6177368164063 1311.755249023438 866.2676391601563 1311.891845703125 867.0875244140625 C 1311.904663085938 867.16455078125 1312.186157226563 868.8811645507813 1312.224853515625 871.2316284179688 C 1312.6962890625 871.411865234375 1313.715698242188 871.63623046875 1315.278686523438 871.6361083984375 C 1316.831176757813 871.635986328125 1317.996337890625 871.4120483398438 1318.435302734375 871.2557983398438 C 1319.203369140625 870.2491455078125 1320.73779296875 868.4220581054688 1322.817138671875 868.4220581054688 C 1323.613037109375 868.4220581054688 1324.38720703125 868.6935424804688 1325.062255859375 869.208251953125 C 1325.113159179688 869.2197265625 1325.221557617188 869.2376098632813 1325.404418945313 869.2376098632813 C 1326.076171875 869.2374877929688 1327.060302734375 868.9991455078125 1327.97265625 868.6154174804688 C 1328.963745117188 868.1985473632813 1329.517456054688 867.7644653320313 1329.640014648438 867.6110229492188 C 1330.187255859375 866.7125854492188 1331.114501953125 866.19775390625 1332.187255859375 866.19775390625 C 1333.669921875 866.19775390625 1335.188354492188 867.1845703125 1336.656860351563 868.1389770507813 C 1337.216918945313 868.5029907226563 1337.745849609375 868.8468017578125 1338.137939453125 869.0428466796875 C 1338.208618164063 869.0781860351563 1338.318115234375 869.0855712890625 1338.397705078125 869.0855712890625 C 1339.412353515625 869.0855102539063 1341.067504882813 868.0784301757813 1342.056518554688 867.4766845703125 C 1342.185424804688 867.3982543945313 1342.308349609375 867.3234252929688 1342.425170898438 867.2532348632813 C 1342.903442382813 866.9664916992188 1343.412719726563 866.8211059570313 1343.939086914063 866.8211059570313 C 1344.97900390625 866.8211059570313 1345.900512695313 867.368408203125 1346.67822265625 868.447998046875 C 1347.113037109375 869.0516357421875 1347.478149414063 869.7713012695313 1347.831298828125 870.4672241210938 C 1348.145751953125 871.0872192382813 1348.47119140625 871.7283325195313 1348.741577148438 872.0664672851563 C 1348.942749023438 872.3179931640625 1349.521362304688 872.545166015625 1350.03173828125 872.7456665039063 C 1350.616333007813 872.9752197265625 1351.278930664063 873.235595703125 1351.856079101563 873.6791381835938 C 1352.746215820313 874.3633422851563 1353.216674804688 875.3113403320313 1353.216674804688 876.4207763671875 C 1353.216674804688 877.0289306640625 1353.216674804688 877.71826171875 1353.282836914063 878.3257446289063 C 1353.323608398438 878.6997680664063 1353.378784179688 878.9411010742188 1353.424560546875 879.0900268554688 C 1354.092407226563 879.1334838867188 1354.79443359375 879.2926025390625 1355.531127929688 879.4596557617188 C 1356.316040039063 879.6375732421875 1357.127685546875 879.8216552734375 1357.744140625 879.8215942382813 C 1358.0068359375 879.8215942382813 1358.132934570313 879.7869262695313 1358.17724609375 879.7708129882813 C 1359.679809570313 877.145263671875 1363.270629882813 873.9577026367188 1366.970825195313 873.2175903320313 C 1367.076416015625 873.1964721679688 1367.147583007813 873.1748657226563 1367.192260742188 873.1585693359375 C 1367.290771484375 872.8150634765625 1367.271362304688 871.8890380859375 1367.256713867188 871.1991577148438 C 1367.22802734375 869.8346557617188 1367.192138671875 868.1364135742188 1367.570922851563 866.1161499023438 C 1367.60888671875 865.9135131835938 1367.677978515625 865.7178955078125 1367.775756835938 865.5363159179688 C 1369.145751953125 862.992431640625 1370.9853515625 862.35888671875 1372.202514648438 861.9397583007813 C 1372.782348632813 861.739990234375 1373.121948242188 861.6165771484375 1373.360595703125 861.4019775390625 C 1373.6630859375 861.1298217773438 1373.917602539063 860.5873413085938 1374.1171875 859.7894897460938 C 1374.633911132813 857.7222290039063 1375.6083984375 855.6982421875 1376.861083984375 854.0901489257813 C 1377.861938476563 852.80517578125 1379.439331054688 851.2734375 1381.269409179688 851.2734375 C 1382.57666015625 851.2734375 1383.649780273438 852.0540771484375 1384.140258789063 853.3617553710938 C 1384.256591796875 853.6721801757813 1384.373779296875 853.9940185546875 1384.486938476563 854.30517578125 C 1384.820068359375 855.2203979492188 1385.164428710938 856.166748046875 1385.525756835938 856.9224243164063 C 1385.854370117188 857.610107421875 1386.08544921875 857.90087890625 1386.190307617188 858.0106201171875 C 1386.206176757813 858.0109252929688 1386.223999023438 858.0111694335938 1386.243896484375 858.0111694335938 C 1386.335327148438 858.0111694335938 1386.442504882813 858.0068969726563 1386.556030273438 858.00244140625 C 1386.691650390625 857.9970703125 1386.845458984375 857.990966796875 1387.006103515625 857.990966796875 C 1387.411010742188 857.990966796875 1388.643432617188 857.990966796875 1389.576782226563 859.02783203125 C 1390.53125 860.0880737304688 1390.789184570313 861.7693481445313 1390.466796875 864.830810546875 C 1390.425415039063 865.2239990234375 1390.385375976563 865.597900390625 1390.347290039063 865.9539184570313 C 1390.095947265625 868.3026733398438 1389.929931640625 869.8543090820313 1390.0224609375 870.8191528320313 C 1390.082397460938 871.4436645507813 1390.213256835938 871.6930541992188 1390.689453125 872.0899047851563 C 1393.20263671875 874.1838989257813 1393.5615234375 877.05517578125 1393.878051757813 879.5884399414063 C 1393.921875 879.9392700195313 1393.953857421875 880.2251586914063 1393.9794921875 880.454833984375 C 1394.004028320313 880.6731567382813 1394.029174804688 880.8975219726563 1394.048217773438 881.017822265625 C 1394.106689453125 881.1007690429688 1394.211669921875 881.23876953125 1394.306762695313 881.3638305664063 C 1394.491088867188 881.6063842773438 1394.74365234375 881.9384765625 1395.073608398438 882.4003295898438 C 1396.6708984375 884.6366577148438 1396.94384765625 887.0632934570313 1396.989624023438 887.9241943359375 L 1398.172973632813 892.3624267578125 C 1398.251831054688 892.6585083007813 1398.26171875 892.968994140625 1398.20166015625 893.2694702148438 C 1398.039794921875 894.080322265625 1397.61962890625 896.4274291992188 1397.61962890625 897.535400390625 C 1397.623046875 898.150146484375 1398.418090820313 900.5390625 1399.320922851563 902.6473388671875 C 1399.567993164063 903.2238159179688 1399.5302734375 903.8829345703125 1399.218994140625 904.427490234375 C 1399.14208984375 904.5621337890625 1398.719482421875 905.2700805664063 1397.95458984375 905.9840698242188 C 1396.815673828125 907.0469360351563 1395.471435546875 907.6087646484375 1394.067138671875 907.6087646484375 C 1392.873168945313 907.6087646484375 1390.980224609375 908.4074096679688 1390.070068359375 908.909423828125 C 1389.772827148438 909.0745849609375 1389.470825195313 909.161376953125 1389.13330078125 909.161376953125 C 1389.124877929688 909.161376953125 1389.116455078125 909.1613159179688 1389.108032226563 909.1611938476563 C 1389.01025390625 909.164306640625 1388.030395507813 909.2064208984375 1386.38671875 909.6619873046875 C 1386.317993164063 909.8394165039063 1386.222778320313 910.2571411132813 1386.246337890625 910.9896850585938 C 1386.26953125 911.7073364257813 1386.393432617188 912.3148193359375 1386.397705078125 912.3358154296875 C 1386.517333984375 912.8864135742188 1386.396362304688 913.452880859375 1386.0693359375 913.9119262695313 C 1386.054931640625 913.9320678710938 1384.626953125 915.9451904296875 1383.79541015625 917.8854370117188 C 1383.736083984375 918.023681640625 1383.731323242188 918.0349731445313 1383.833740234375 918.1920776367188 C 1384.07177734375 918.5576782226563 1384.616943359375 919.006591796875 1385.098022460938 919.4026489257813 C 1385.45849609375 919.6995239257813 1385.831176757813 920.0064697265625 1386.165771484375 920.3410034179688 C 1386.353515625 920.5242309570313 1387.10791015625 920.906494140625 1387.607055664063 921.159423828125 C 1388.52880859375 921.6264038085938 1389.573486328125 922.1556396484375 1390.485595703125 922.8885498046875 C 1391.762084960938 923.9141845703125 1392.486572265625 925.1301879882813 1392.638916015625 926.50244140625 C 1392.703002929688 927.0779418945313 1392.7412109375 927.6341552734375 1392.778198242188 928.1720581054688 C 1392.844604492188 929.1370239257813 1392.9072265625 930.0484008789063 1393.099243164063 930.6268310546875 C 1393.211181640625 930.9640502929688 1393.279541015625 930.9835815429688 1393.37451171875 931.0107421875 C 1393.57177734375 931.0670776367188 1393.772094726563 931.1201782226563 1393.9658203125 931.1715087890625 C 1395.01220703125 931.4486083984375 1396.198120117188 931.7627563476563 1397.130004882813 932.7274169921875 C 1398.403686523438 934.0458374023438 1398.551025390625 935.9575805664063 1398.551025390625 937.2808227539063 C 1398.551025390625 938.2933959960938 1398.686645507813 939.3645629882813 1398.817749023438 940.4005126953125 C 1398.943969726563 941.3980712890625 1399.074462890625 942.4297485351563 1399.084350585938 943.4192504882813 C 1399.08837890625 943.8363037109375 1398.962036132813 944.2442626953125 1398.722778320313 944.5859985351563 L 1394.906494140625 950.03759765625 L 1406.739990234375 952.610107421875 M 1406.7978515625 954.66943359375 L 1392.514282226563 951.5642700195313 L 1389.213134765625 947.677001953125 C 1391.158935546875 948.0923461914063 1393.135375976563 949.080078125 1393.135375976563 949.080078125 L 1397.084350585938 943.4390258789063 C 1397.066040039063 941.5852661132813 1396.551025390625 939.4338989257813 1396.551025390625 937.2808227539063 C 1396.551025390625 933.5548095703125 1394.99853515625 933.5548095703125 1392.824951171875 932.9337768554688 C 1390.651245117188 932.3128051757813 1390.962036132813 929.5181884765625 1390.651245117188 926.7235107421875 C 1390.3408203125 923.9287719726563 1385.99365234375 922.9974365234375 1384.751831054688 921.7554931640625 C 1383.509643554688 920.51318359375 1381.025634765625 919.27099609375 1381.957153320313 917.0975952148438 C 1382.888671875 914.9240112304688 1384.441162109375 912.7504272460938 1384.441162109375 912.7504272460938 C 1384.441162109375 912.7504272460938 1383.509643554688 908.4032592773438 1385.683349609375 907.7822265625 C 1387.856689453125 907.1610717773438 1389.098876953125 907.1610717773438 1389.098876953125 907.1610717773438 C 1389.098876953125 907.1610717773438 1391.893432617188 905.6087646484375 1394.067138671875 905.6087646484375 C 1396.240478515625 905.6087646484375 1397.482666015625 903.4351806640625 1397.482666015625 903.4351806640625 C 1397.482666015625 903.4351806640625 1395.61962890625 899.0880737304688 1395.61962890625 897.5355834960938 C 1395.61962890625 895.9829711914063 1396.240478515625 892.877685546875 1396.240478515625 892.877685546875 L 1394.99853515625 888.219970703125 C 1394.99853515625 888.219970703125 1394.99853515625 885.736328125 1393.446044921875 883.5628051757813 C 1391.893432617188 881.3889770507813 1392.203979492188 882.3204956054688 1391.893432617188 879.8364868164063 C 1391.5830078125 877.3524169921875 1391.272338867188 875.1787719726563 1389.4091796875 873.6264038085938 C 1387.546142578125 872.0738525390625 1387.856689453125 870.5211791992188 1388.477783203125 864.6213989257813 C 1388.924072265625 860.3829345703125 1388.087890625 859.9910278320313 1387.006103515625 859.9910278320313 C 1386.7607421875 859.9910278320313 1386.50244140625 860.0111694335938 1386.243896484375 860.0111694335938 C 1386.0556640625 860.0111694335938 1385.867431640625 860.0005493164063 1385.683349609375 859.9636840820313 C 1384.130493164063 859.6534423828125 1383.199096679688 856.54833984375 1382.267578125 854.0640258789063 C 1382.063354492188 853.5195922851563 1381.709838867188 853.2734375 1381.26953125 853.2734375 C 1379.70068359375 853.2734375 1377.02734375 856.3952026367188 1376.057373046875 860.2745971679688 C 1374.815307617188 865.2424926757813 1371.71044921875 862.4481811523438 1369.53662109375 866.4846801757813 C 1368.605224609375 871.4528198242188 1370.46826171875 874.5576782226563 1367.363159179688 875.1787719726563 C 1364.258056640625 875.7998046875 1361.153076171875 878.5944213867188 1359.910888671875 880.7681884765625 C 1359.453369140625 881.5686645507813 1358.658447265625 881.821533203125 1357.744140625 881.8215942382813 C 1356.176147460938 881.8217163085938 1354.256469726563 881.0784301757813 1353.07958984375 881.0784301757813 C 1351.216674804688 881.0784301757813 1351.216674804688 878.283935546875 1351.216674804688 876.4207763671875 C 1351.216674804688 874.5576782226563 1348.421997070313 874.8685913085938 1347.179809570313 873.3158569335938 C 1346.07275390625 871.9318237304688 1345.212524414063 868.821044921875 1343.939086914063 868.821044921875 C 1343.783935546875 868.821044921875 1343.622680664063 868.8672485351563 1343.453979492188 868.9683837890625 C 1342.197998046875 869.7223510742188 1340.128784179688 871.0853881835938 1338.39794921875 871.0855712890625 C 1337.989135742188 871.0856323242188 1337.599609375 871.0097045898438 1337.24365234375 870.8317260742188 C 1335.772094726563 870.0961303710938 1333.525390625 868.1976928710938 1332.187255859375 868.1976928710938 C 1331.831176757813 868.1976928710938 1331.539672851563 868.3319702148438 1331.343994140625 868.6582641601563 C 1330.625610351563 869.8554077148438 1327.50634765625 871.2374267578125 1325.404541015625 871.237548828125 C 1324.780883789063 871.2376098632813 1324.2470703125 871.115966796875 1323.891845703125 870.8317260742188 C 1323.531127929688 870.5430908203125 1323.170166015625 870.4220581054688 1322.817138671875 870.4220581054688 C 1321.651123046875 870.4220581054688 1320.5703125 871.7413940429688 1319.855102539063 872.694580078125 C 1319.429077148438 873.2627563476563 1317.378173828125 873.6360473632813 1315.27880859375 873.6361083984375 C 1312.788208007813 873.63623046875 1310.229248046875 873.1111450195313 1310.229248046875 871.76318359375 C 1310.229248046875 869.2794189453125 1309.9189453125 867.4158935546875 1309.9189453125 867.4158935546875 C 1309.9189453125 867.4158935546875 1303.708618164063 866.1740112304688 1303.398193359375 864.3109741210938 C 1303.087646484375 862.4481811523438 1300.603637695313 861.205810546875 1300.603637695313 861.205810546875 C 1300.603637695313 861.205810546875 1300.074462890625 861.4042358398438 1299.474243164063 861.4042358398438 C 1298.773681640625 861.404296875 1297.976318359375 861.1342163085938 1297.808959960938 859.9636840820313 C 1297.49853515625 857.7902221679688 1291.2880859375 853.1326904296875 1288.804321289063 850.9593505859375 C 1286.320190429688 848.7855834960938 1280.73095703125 843.8172607421875 1279.48876953125 843.1964111328125 C 1278.246826171875 842.5755004882813 1272.65771484375 840.7123413085938 1267.689575195313 840.7123413085938 C 1262.721435546875 840.7123413085938 1263.031860351563 843.1964111328125 1261.479248046875 843.1964111328125 C 1260.508911132813 843.1964111328125 1257.597778320313 841.9833984375 1254.641235351563 841.9833984375 C 1252.867431640625 841.9833984375 1251.077270507813 842.4199829101563 1249.679931640625 843.8172607421875 C 1246.4267578125 847.0704345703125 1240.80859375 849.4552612304688 1239.02099609375 851.110595703125 L 1237.259643554688 849.7172241210938 L 1224.21826171875 822.39208984375 L 1224.218139648438 822.39208984375 L 1202.79296875 809.6611938476563 L 1190.99365234375 787.3046875 L 1150.006469726563 783.8890991210938 L 1145.348876953125 791.0308227539063 L 1102.187866210938 782.0259399414063 L 1097.2197265625 776.436767578125 L 1090.693115234375 781.7227172851563 L 1090.023559570313 779.0438842773438 L 1085.3701171875 766.6259765625 L 1056.818237304688 659.5364990234375 L 1073.5771484375 613.5969848632813 L 1077.302368164063 579.7611083984375 L 1061.319946289063 541.5643920898438 L 1061.458251953125 541.5609741210938 L 1049.6796875 514.5759887695313 L 1031.990356445313 289.5323181152344 L 1411.24072265625 350.6829223632813 L 1422.413452148438 374.8949279785156 L 1454.069702148438 419.5936584472656 L 1454.202880859375 421.0579223632813 L 1453.13720703125 419.5927429199219 L 1453.13720703125 419.5929260253906 L 1468.03564453125 440.0802612304688 L 1520.176147460938 558.344970703125 L 1526.534301757813 777.3123168945313 L 1525.412475585938 827.9812622070313 L 1517.33935546875 833.5704345703125 L 1514.234252929688 833.5704345703125 L 1510.508178710938 834.1915893554688 L 1506.160888671875 832.9495849609375 L 1500.571899414063 823.6340942382813 L 1460.826538085938 834.1915893554688 L 1444.68017578125 849.7172241210938 L 1458.342529296875 940.3856811523438 L 1406.7978515625 954.66943359375 Z M 1526.692749023438 782.7689208984375 L 1526.534301757813 777.3123168945313 L 1526.635986328125 772.7191772460938 L 1526.692749023438 782.7689208984375 Z" stroke="none" fill="#fff"/>
    </g>
  </g>
</svg>
