<svg xmlns="http://www.w3.org/2000/svg" width="984.745" height="601.979" viewBox="0 0 984.745 601.979">
    <g id="области" transform="translate(0.5 0.5)">
        <path id="Дальний_Восток" data-name="Дальний Восток" d="M1483.653,802.151l-6.954,4.814h-2.675l-3.209.535-3.745-1.07-4.814-8.024-34.235,9.094-13.908,13.373,11.768,78.1-44.4,12.3-12.3-2.674-2.844-3.348a16.537,16.537,0,0,1,3.379,1.209l3.4-4.859c-.016-1.6-.459-3.45-.459-5.3,0-3.209-1.337-3.209-3.21-3.744s-1.6-2.942-1.872-5.349-4.012-3.21-5.082-4.279-3.21-2.14-2.407-4.012a23.446,23.446,0,0,1,2.14-3.744s-.8-3.745,1.07-4.279a11.951,11.951,0,0,1,2.942-.535,11.052,11.052,0,0,1,4.279-1.337,3.8,3.8,0,0,0,2.942-1.872s-1.6-3.744-1.6-5.082a29.075,29.075,0,0,1,.535-4.012l-1.07-4.012a7.641,7.641,0,0,0-1.337-4.012c-1.337-1.872-1.07-1.07-1.337-3.21s-.535-4.012-2.14-5.349-1.337-2.675-.8-7.756-1.07-3.744-2.407-4.012-2.14-2.942-2.942-5.082-4.279,1.07-5.349,5.349-3.744,1.872-5.617,5.349c-.8,4.279.8,6.954-1.872,7.489a10.918,10.918,0,0,0-6.419,4.814c-1.07,1.872-4.279.267-5.884.267s-1.6-2.407-1.6-4.012-2.407-1.337-3.477-2.674-1.872-4.547-3.209-3.745-3.745,2.407-5.349,1.6-4.279-3.21-5.082-1.872-5.082,2.942-6.419,1.872-2.675.535-3.477,1.6-8.291,1.337-8.291-.8a25.269,25.269,0,0,0-.267-3.745s-5.349-1.07-5.617-2.675-2.407-2.674-2.407-2.674-2.14.8-2.407-1.07-5.617-5.884-7.756-7.756-6.954-6.152-8.024-6.687a29.146,29.146,0,0,0-10.163-2.14c-4.279,0-4.012,2.14-5.349,2.14s-6.954-2.675-10.163.535c-2.8,2.8-7.641,4.856-9.181,6.282l-1.517-1.2-11.233-23.537,44.4-11.768,5.349-6.954.535-19.257-6.954-26.211,20.327-42.258-1.07-36.374,12.838-12.838,12.3,4.279,28.351,29.42,2.674,23.536,45.735-20.059,96.018,83.714Z" transform="translate(-501.011 -329.552)" fill="rgba(0,156,255,0.15)" stroke="#fff" stroke-linejoin="round" stroke-width="1"/>
        <path id="Камчат" d="M1508.055,732.373l.016-.6-96.018-83.714-.016.007-8.992-7.9L1392.62,516.648l52.127-97.055,12.833,17.647,44.911,101.868,5.613,193.308Z" transform="translate(-524.359 -298.76)" fill="rgba(0,156,255,0.15)" stroke="#fff" stroke-linejoin="round" stroke-width="1"/>
        <path id="СВ" d="M1342.619,498.616l10.426,123.525,8.992,7.9-45.719,20.052-1.337-11.768-1.337-11.768-14.175-14.71-14.175-14.71-11.793-4.1-11.078-17.411,11.228-22.459,8.822-48.928-7.218-6.417,11.228-16.844L1255.2,428.832,1231.145,416.8l-14.436,39.3-42.768,30.211-48.387,18.716-67.248,1.174-11.079-22.831L1031.99,289.533,1358.659,342.2l9.624,20.855,27.267,38.5.115,1.261-.918-1.262Z" transform="translate(-474.359 -280.728)" fill="rgba(0,156,255,0.15)" stroke="#fff" stroke-linejoin="round" stroke-width="1"/>
        <path id="СВ_Сибири" data-name="СВ Сибири" d="M125.736,320.746l-10.164-19.256-35.3-2.942L76.256,304.7,39.08,296.942,34.8,292.128l-5.621,4.553h0l-.576-2.307-4.009-10.7L0,191.435l14.436-39.57,3.208-29.144L3.878,89.82l68.3-1.589,48.388-18.716L163.334,39.3,177.769,0l24.06,12.031L220.287,42.8l12.819,21.368L221.878,81.013,229.1,87.43l-8.822,48.929-11.228,22.459,11.078,17.411-.509-.177-12.839,12.838,1.07,36.374-20.327,42.258,6.954,26.212-.535,19.256-5.35,6.954-44.4,11.768Z" transform="translate(579.017 136.073)" fill="rgba(0,156,255,0.15)" stroke="#fff" stroke-linejoin="round" stroke-width="1"/>
        <path id="В_Сибирь" data-name="В Сибирь" d="M1055.054,826.184l19.792-38.514,5.344-6.68,5.622-4.553,4.279,4.814,37.177,7.756,4.012-6.151,35.3,2.942,10.163,19.257,18.455,10.966h0l11.233,23.536,1.517,1.2a1.665,1.665,0,0,0-.447.583c-.535,1.426-5.171,3.566-5.171,3.566s-2.318,1.248-2.318,3.031-1.426,4.636-1.961,6.419.535,3.209,3.209,1.783,2.675.535,3.566,1.07.891,1.427,2.318,2.5-1.07,3.744-1.07,3.744-3.566,3.744-2.14,5.171.892,7.132.357,8.38-1.961,5.171,1.07,8.38.713,3.923-.535,4.636-3.744,3.744-3.744,6.241-1.07,3.21-2.5,3.21h-3.566a7.371,7.371,0,0,1-5.576-.209,10.327,10.327,0,0,1-1.378-.683c-3.923-2.318-5.706,1.248-5.706,1.248s-1.427,2.318-2.5,2.674-2.675-.713-5.884-2.674-4.993,1.07-6.419,1.783-2.853,3.388-2.853,3.388a11.177,11.177,0,0,0-3.21,6.062c-.356,3.388-1.783,3.744-2.853,3.209s-1.426-1.248-2.853.535a22.962,22.962,0,0,1-3.566,3.388s-4.814,1.783-5.171,3.209-3.566,2.318-4.458,2.675-.178,2.139-2.318,1.426-9.985-.535-9.985-.535a34.2,34.2,0,0,1-5.349,1.07c-1.427,0-3.388,1.427-3.745-2.5s-3.031-3.745-3.031-3.745-4.993,1.783-7.132-.535-3.923-.713-6.062-.178-4.458-.357-7.132-.713-8.915,5.171-10.52,5.706a59.077,59.077,0,0,1-8.024,1.248c-2.853.357-5.884-2.318-6.419-3.566s-1.783-2.675-2.5-4.458,1.783-5.706-1.426-5.349a29.7,29.7,0,0,1-11.768-1.427c-3.209-1.248-5.706-1.248-7.489-.535s-7.311-4.1-7.132-3.031c.065.388-.157.209-.51.831v-2.4l-3.591-9.664-23.536-11.233,12.838-27.281-4.814-17.117ZM1227.3,921.4c.286.159.543.319.781.481C1227.839,921.719,1227.582,921.558,1227.3,921.4Z" transform="translate(-471.994 -348.236)" fill="rgba(0,156,255,0.15)" stroke="#fff" stroke-linejoin="round" stroke-width="1"/>
        <path id="Ц_Сибирь" data-name="Ц Сибирь" d="M1036.216,537.78l13.766,32.9-3.209,29.145-14.435,39.57,24.593,92.242,4.008,10.7.577,2.307-5.344,6.68-19.792,38.514-32.1,13.908,4.814,17.117-12.838,27.281,23.536,11.233,3.744,9.9-.148,2.8c-.322.466-1.13,1.7-2.349,3.527-1.07,1.6-1.248.535-3.923,4.992s-2.675,2.14,1.248,9.45,1.159,8.113-.179,8.915-3.477,2.942-4.814,3.744-2.942-2.14-4.012-2.14a6.086,6.086,0,0,1-4.012-1.07c-1.337-1.07-2.942,1.337-4.547,1.6s-5.617-.267-6.954,0-2.942-2.14-3.745-4.012.267-4.547-2.942-4.012a21.083,21.083,0,0,1-11.768-1.337c-4.547-1.872-2.139.267-3.744,1.337s-5.884,1.872-6.686,2.942-5.349,2.674-7.489,3.477-3.21,0-5.884,4.547a7.316,7.316,0,0,1-1.707,2.088l7.923-15.463-.544-5.882-7.489-7.756,6.687-15.245-2.942-21.129,4.012-19.257-6.954-16.047-.535-19.525L910.78,756.237l14.337-30.86-8.024-43.328-10.966-27.815-1.07-30.758-7.8-10.805-2.627-4.172-1.872-15.78-.121-.132-.112-.924-.034-.282-12.036-12.57-.2-.07,2.34-11.7,38.247.8,27.281-27.815,78.605-25.762,10.587,23.488Zm-12.826,334.395.005-.1C1023.6,871.772,1023.609,871.787,1023.389,872.174Z" transform="translate(-453.321 -311.887)" fill="rgba(0,156,255,0.15)" stroke="#fff" stroke-linejoin="round" stroke-width="1"/>
        <path id="З_Сибирь" data-name="З Сибирь" d="M945.329,928.693l-7.922,15.472c-1.847,1.463-3.228.135-3.643,1.38-.535,1.6-2.942,1.872-4.814.8s-4.547.268-5.082,2.675c-.293,1.321-1.634,1.511-2.961,1.24q.026.315.056.633h-5.1a3.772,3.772,0,0,1,1.727-1.659l.122-.609c-1.083-.617-2.566-.568-3.474-1.477-1.07-1.07.268-3.745.268-5.349s-3.209,1.07-5.082,3.21-3.477-1.6-5.617-1.07-2.942-.8-2.942-.8-.267-5.082-1.6-4.814-4.814-3.209-4.814-3.209-4.012-8.024-5.082-9.361-3.209-2.942-6.686-.8-5.349,1.337-7.221,1.337-2.942-1.07-4.28-2.14-2.14-.268-2.407-2.407,1.872-1.6-1.872-2.675-3.209,3.477-5.082,5.082-2.942-2.407-3.209-4.279-.535-2.407-1.6-2.942-.535-4.012-.8-5.082-.8-5.349-1.872-6.686a9.906,9.906,0,0,1-2.14-4.814c-.268-1.872-.268-4.547-1.872-5.884s-3.477-7.222-4.012-9.094-2.407-.8-4.547-4.012,1.872-4.814,1.872-4.814c1.961-3.923-4.458-1.783-5.884-1.426s-3.031,1.426-4.636,1.07-1.07-.357-1.6,1.248-2.318,1.07-4.636,1.248-2.5,2.318-3.744,3.209-3.566-1.783-4.458-2.853-1.961,1.6-3.21,2.318-1.6-.713-1.427-3.031,4.636-1.07,5.706-2.318-.535-1.248-1.427-2.5-2.14.891-3.744.891-.713-3.566-1.6-3.566-1.248,3.21-2.318,3.388-.891-2.318-.535-4.279-.892-3.566-3.031-2.853-2.318,1.961-3.388,1.6a13.1,13.1,0,0,0-2.5-.713c-1.07-.178-.178-1.783.891-3.566s1.426-2.853.892-4.1a7.587,7.587,0,0,1,0-4.458c.356-1.07-.535-3.566-2.675-2.675s-3.566-.178-3.566-1.426-.357-.713-1.07-1.426-3.209-1.07-4.458-1.961a11.7,11.7,0,0,0-.989-.659l6.8-7.986,16.925-19.884,12.3-2.407,32.1-24.071,4.012-4.814,16.315,6.152,19.477-.1.153-.33,39.265,29.586.535,19.525,6.954,16.047L941.04,878.68l2.942,21.129L937.3,915.054l7.489,7.756Z" transform="translate(-440.838 -349.915)" fill="rgba(0,156,255,0.15)" stroke="#fff" stroke-linejoin="round" stroke-width="1"/>
        <path id="север_сибири" data-name="север сибири" d="M893.807,782.5l-.153.33-19.477.1-16.315-6.151-4.012,4.814-32.1,24.071-12.3,2.407-16.925,19.884-6.8,7.986c.049.028.092.064.14.093a3.188,3.188,0,0,0-3.917.239l-.006-.007a3.251,3.251,0,0,1,3.039-.661l.127-.254-20.594-29.421-6.686-4.012,2.14-4.814,4.012-3.744,3.209-15.78,5.082-5.082,4.547-19.792,1.872-12.838-19.577-7.878-.854-1.335,16.653-26.989,23.958-17.134,15.577-3.269,10.769-4.615,6.346-8.269-3.269-8.461,2.5-25.577,4.231-7.885,20-26.923,8.269,3.462,12.308,12.5,1.923,17.115,10.385,15,1.346,31.154,10.769,27.5,7.929,42.368.186,1.006Z" transform="translate(-436.348 -338.146)" fill="rgba(0,156,255,0.15)" stroke="#fff" stroke-linejoin="round" stroke-width="1"/>
        <path id="урал" d="M-2047.766-2581.723a3.778,3.778,0,0,0-1.479-.04c-.112.045-.232.089-.356.133l-1.784-1.025-6.953-14.175-.8-9.9,2.942-.536,9.094-4.814,2.813-22.829-1.576-3.384.059.012-5.93-11.2h0l-17.03-6.192-8.033-6.546-.005.008-.825-.685-10.1-8.391-9.116-16.214-6.969-3.484,8.305-9.621-4.1-12.928-.455-1.127h0l4.911-3.508.981-.891,2.3-.64,7.325-2.3,14.02,5.374.1.813,5.669,7.988,9.361,5.884.956.305.191-.108,10.417,1.793,13.31,2.29,12.135-2.424.315.131-.191.041,18.7-3.966.82,1.282,19.577,7.879-1.872,12.837-4.547,19.792-5.082,5.082-3.209,15.78-4.011,3.745-2.14,4.813,6.687,4.012,20.594,29.42-.127.255c-.035-.012-.072-.019-.108-.03s-.1-.027-.143-.039c-.084-.02-.168-.033-.255-.045-.058-.009-.115-.017-.175-.021a2.613,2.613,0,0,0-.337,0c-.081,0-.165.017-.248.028-.053.008-.107.015-.162.026q-.142.029-.289.072c-.04.012-.081.027-.122.042a4.626,4.626,0,0,0-1.116.577c-.029.02-.056.035-.085.055l0,0c-.075.053-.146.094-.223.153-2.318,1.783-4.28,3.031-6.6,2.5a32.066,32.066,0,0,0-3.923-.714,5.691,5.691,0,0,0-1.9.209,5.324,5.324,0,0,1-2.377.148c-1.427-.357-2.853-.892-3.388.178-.31.621-1.764.16-3.207-.3a8.2,8.2,0,0,0-2.677-.591c-1.427.179-2.853,2.319-4.1,1.783a4.461,4.461,0,0,1-.968-.635v-.006h0c-1.013-.81-2.149-1.946-3.49-1.677-1.783.356-7.667-.535-9.093-.714a15.194,15.194,0,0,0-2.546.086,12.66,12.66,0,0,1-4.052-.086c-1.783-.534-4.458-1.426-6.062-3.387s-2.853-1.248-4.28.535-1.069,3.567,0,4.279-.178,2.14-.178,2.14-.178.713,2.14,2.853,1.426,3.922.178,4.458-2.14-1.248-3.031-2.14-1.427-3.388-4.993-1.247-3.388,5.527-3.922,7.666c-.244.976-1.044,1.21-1.927,1.21A10.005,10.005,0,0,1-2047.766-2581.723Z" transform="translate(2321.517 3096.441)" fill="rgba(0,156,255,0.15)" stroke="#fff" stroke-linejoin="round" stroke-width="1"/>
        <path id="север_урал" data-name="север урал" d="M819.518,622.2l-2.675,26.211,3.477,8.024L813.9,665l-10.431,4.547-15.78,3.209-24.071,16.582-17.462,28.375-.725-.292-3.456.1-3.745.8-8.03,2.15-14.19,2.834-13.31-2.29-11.564-1.989-9.361-5.884-5.669-7.988.163-.378,8.983-20.788-1.872-10.966,33.432-11.768,4.814-11.768,15.78-6.152,30.758,10.7,5.617-3.477,3.209-6.419,6.419-30.49s1.6-11.234,11.768-7.489c6.967,2.567,20.718,6.389,28.68,8.541Z" transform="translate(-425.017 -324.521)" fill="rgba(0,156,255,0.15)" stroke="#fff" stroke-linejoin="round" stroke-width="1"/>
        <path id="северо-запад" d="M-1944.415-2340.337l-49.213-36.374-.152-.1-.057.044-12.629-3.158-4.28,2.675-19.792-5.349-12.833,7.13-.893-.837.057-.274.031-.151c.041-.2.08-.394.118-.587.011-.052.02-.1.03-.153.031-.153.058-.3.086-.447.009-.051.019-.1.028-.153.033-.18.063-.35.088-.507,0-.024.006-.045.01-.069.021-.131.038-.249.051-.357,0-.032.008-.065.011-.094.013-.116.022-.22.022-.292a1.6,1.6,0,0,0-.448-1.214c-.239-.33-.6-.807-1.156-1.639l-.011-.013a2.486,2.486,0,0,0-.256-.325c-.031-.032-.062-.055-.093-.084a1.848,1.848,0,0,0-.184-.161c-.036-.025-.072-.042-.108-.065a1.712,1.712,0,0,0-.176-.1c-.038-.016-.076-.026-.113-.039a1.458,1.458,0,0,0-.176-.053c-.037-.008-.074-.011-.112-.016a1.693,1.693,0,0,0-.183-.018c-.034,0-.068,0-.1,0-.065,0-.13,0-.193.011l-.086.012c-.074.011-.147.023-.219.038l-.048.01c-.313.069-.617.167-.894.225l-.016,0a2.091,2.091,0,0,1-.211.032c-.014,0-.028,0-.041,0a1.1,1.1,0,0,1-.181,0c-.016,0-.031,0-.047-.006a.848.848,0,0,1-.16-.033c-.015-.005-.029-.014-.043-.02a.686.686,0,0,1-.145-.077c-.011-.008-.021-.021-.031-.03a.787.787,0,0,1-.135-.138l-.174-.422c-.44-1.552,2-3.2,2-3.2l-.005-.009a14.309,14.309,0,0,1-1.421-3.2,4.707,4.707,0,0,0-.322-1.187,8.679,8.679,0,0,0-.926-1.488,1.973,1.973,0,0,0-.291-.313l-.061-.054a3.508,3.508,0,0,0-.363-.268h0l.328-1.13c.083-.03.17-.051.249-.086a5.03,5.03,0,0,0,2.243-2.734,13.987,13.987,0,0,0,.748-2.366.019.019,0,0,0,0-.007,8.943,8.943,0,0,1,.876-2.25c.007-.014.012-.031.018-.046a2.812,2.812,0,0,0,.175-.55c.08-.4.675-.589,1.471-.848a7.873,7.873,0,0,0,3.344-1.827c1.1-1.1.966-1.755.634-2.368a3.26,3.26,0,0,1-.633-1.55s0,0,0-.005,0,0,0-.005a2.607,2.607,0,0,1,.735-1.827c.048-.05.1-.111.14-.147a1.963,1.963,0,0,1,.194-.16s5.349-.535,5.349-2.14c0-.311,0-.572.015-.808.272-.214.551-.444.835-.692.393-.345.73-.622,1.042-.873h0a4.2,4.2,0,0,0,1.537-.642l.021-.015a4.309,4.309,0,0,0,.407-.309c.023-.021.044-.042.068-.063.109-.1.215-.2.311-.3.041-.045.075-.092.113-.138.073-.088.147-.175.21-.266s.1-.157.143-.238c.038-.065.081-.129.113-.194a2.8,2.8,0,0,0,.176-.45c.356-1.249.891-1.606,2.139-2.14s4.1-.178,5.706-.713a2.309,2.309,0,0,1,2.3.8l.015-.133h0s-.225-.258-.517-.661a10.314,10.314,0,0,1-.7-1.112c-.011-.02-.023-.038-.032-.057l-.01-.019c-.073-.139-.143-.281-.207-.425a.088.088,0,0,1-.007-.016c-.144-.324-.291-.666-.445-1.01-.014-.033-.028-.065-.043-.1a1.9,1.9,0,0,0,1.432-1.015c1.07-2.675-6.419-9.094-4.28-10.7s4.28,3.209,9.629,3.745a12.839,12.839,0,0,0,4.731-.085c.233.111.472.213.711.312l.142.057c.469.187.935.349,1.37.486l.153.048c.205.063.405.122.589.174l.005,0a1.149,1.149,0,0,1,.053-.19c.167-.335,1.432-.46,3.124-.474,3.722-.031,9.514.474,10.249.474,1.07,0,12.839,0,19.792-1.872s5.082-8.825,4.815-12.3h0c-.05-.652-.082-1.173-.078-1.593.014-1.822.68-1.768,3.288-2.419,3.209-.8,2.942-2.139,2.942-2.139s1.069-1.606,1.872-2.675,1.872-1.6,1.872-4.012,3.744-2.675,4.279-4.814,5.884-1.337,7.756-4.012c.212-.3.422-.637.632-.988.041-.068.081-.134.121-.2q.3-.508.589-1.062l.143-.28q.25-.486.493-.993l.167-.351q.226-.482.443-.973c.077-.174.153-.345.229-.52l.014-.03.033-.077-.033.077c.093-.2.3-.525.488-.824l-.095-.1q-.145.346-.294.694c.744-1.736,1.4-3.461,1.885-4.8,1.07-2.941,7.489-3.209,9.9-2.407s2.139-1.337,2.407-3.209a14.181,14.181,0,0,1,2.14-4.547l-.8-4.012s3.478-4.814,7.489-7.221a5.856,5.856,0,0,1,5.5-.445,4.652,4.652,0,0,1,2.521-2.23c.149-.05.268-.1.4-.153l12.44,2.828,39.048-35.84,9.094,6.419,69-71.679-4.28-5.349L-1662.513-2722l55.9,8.58.02.231-.041-.007,15.23,193.753-78.063,25.585-27.281,27.815-38.246-.8-2.34,11.7-8.348-3.34-19.74,26.66c-3.664-.989-8.553-2.334-13.442-3.747-5.737-1.657-11.477-3.408-15.238-4.793-10.164-3.745-11.768,7.489-11.768,7.489l-6.419,30.49-2.34,4.68-.869,1.739-5.617,3.477-30.758-10.7-15.64,6.1h0l-.14.054.066-.026-.067.026-4.814,11.769-33.093,11.649-.334.145,1.868,10.941-8.983,20.788-.163.377-.1-.813-14.019-5.374-1.275.4.12-.038-6.17,1.939-2.3.64-.981.891-4.911,3.508ZM-1928.453-2347.2Zm-32.188-50.917Zm-89.647,3.678h0Zm-44.34-18.607c-.163-.032-.8-.332-2.212-2.823a68.192,68.192,0,0,1-2.976-6.179c-1.724-3.983-3.2-7.958-3.484-8.731l4.678-21.833,3.968.882,2.1,22.1.007.077.031.072,1.55,3.615-.515,3.605-.019.129.047.121,2.544,6.615c-.8.63-3.225,2.4-5.187,2.4A2.7,2.7,0,0,1-2094.629-2413.041Zm149.859-58.654q-.217.49-.443.973Q-1944.987-2471.2-1944.77-2471.7Zm.292-.666-.017.039Zm.026-.061-.026.061Zm.022-.052-.022.052Zm0,0v0Z" transform="translate(2164.266 2722)" fill="rgba(0,156,255,0.15)" stroke="#fff" stroke-linejoin="round" stroke-width="1"/>
        <path id="центр_волга" data-name="центр волга" d="M682.791,828.942l-9.094,4.814-2.942.535.8,9.9,6.954,14.175,1.784,1.025c-.87.307-1.962.58-1.962.58a8.616,8.616,0,0,1-.178,2.853c-.357.891-.179,1.783,1.248,3.031s1.783.713,3.031,2.853,2.853,1.427,3.388,3.566-2.674,1.783-2.853,3.209-1.6,3.209-3.388,1.783a6.814,6.814,0,0,0-4.458-1.783c-1.783-.178-1.248-1.6-2.853-3.566s-4.814,4.458-5.706,3.744-.535-3.031-2.318-3.744-2.318-5.171-2.674-6.775-2.5-2.675-4.1-3.031-2.853.713-4.992-.357,0-.535-1.427-2.5-3.209-2.318-3.744-1.426-2.853.178-4.279,0-2.318,1.248-3.744,1.426-2.14-1.6-2.5-2.853-.892-4.458-2.675-4.279-1.783,3.031-3.031,3.566-1.07.535-.891-1.426,1.783-3.744,1.248-4.636-.535-2.318-1.961-5.528-2.318-3.923-2.853-5.171-1.961-.178-3.209-1.248.535-2.14-1.783-4.993-3.388,1.426-5.171,1.426-.891-3.388-1.427-4.458-4.992-3.031-6.24-1.6-7.132,1.961-9.272.178-3.031,1.962-3.031,1.962a17.817,17.817,0,0,1-6.419.892c-2.675-.357-3.209,5.171-3.745,6.062s-1.961,0-3.744-.892.178-4.1.891-5.527-.891-3.388-1.6-4.814a.689.689,0,0,0-.264-.285l.888-.429-10.163-11.5-.268-8.023-10.7-5.884-5.082.267-.176-.312,3.385-8.781,8.826-7.489,6.954-11.233,14.443-6.954,14.843,9.288,1.662-1.566,38.689,31.179,16.155-18.754.062-.088,16.832,6.47,7.586,14.122Z" transform="translate(-408.379 -344.575)" fill="rgba(0,156,255,0.15)" stroke="#fff" stroke-linejoin="round" stroke-width="1"/>
        <path id="татарь" d="M644.8,804.085l-38.61-31.065,19.89-22.984,6.968,3.484,9.117,16.214,18.905,15.7.062-.088Z" transform="translate(-408.379 -344.575)" fill="rgba(0,156,255,0.15)" stroke="#fff" stroke-linejoin="round" stroke-width="1"/>
        <path id="Крым" d="M401.717,783.889,384.6,804.751,419.37,845.4l17.652-13.373,5.884-9.094,12.036-5.884S429.533,794.052,401.717,783.889Z" transform="translate(-384.6 -349.269)" fill="rgba(0,156,255,0.15)" stroke="#fff" stroke-linejoin="round" stroke-width="1"/>
        <path id="Юг" d="M551.828,838.245c-1.783.713-2.675,5.349-3.566,6.241s-.713,1.6-2.675,1.248-2.853.891-4.279,2.853.713,4.814,1.248,6.419-1.07,2.14-1.961,4.636,1.961,3.031,3.21,3.031,2.853,1.783,3.209,4.814,0,11.59-1.6,12.66-1.248-.535-1.248-.535-1.6-3.566-2.853-.713c-1,3.993,1.4,5.017,2.573,6.128a4.736,4.736,0,0,1,3.12.1,1.627,1.627,0,0,0,.013.193c1.07,4.814-17.117,32.095-20.862,34.77s1.07,5.349,1.07,8.024-19.257,1.6-19.257,1.6l-2.062,3.436c-.978.512-2.218,1.111-3.109.665-1.426-.713-3.566-.356-6.062.535s-2.853-.891-3.209-2.318.357-2.853,0-4.279a15.329,15.329,0,0,1-.713-4.28,2.707,2.707,0,0,0-1.6-2.853,1.733,1.733,0,0,1-.663-.994,1.514,1.514,0,0,1-.121-.5,13.9,13.9,0,0,0-.463-2.432c-.535-1.426-1.961-2.675-2.674-4.1s1.427-1.783,1.6-3.031-.713-3.21-1.426-5.349a21.064,21.064,0,0,0-2.14-4.28s-2.674-.713-3.388-2.139-4.458-.357-5.349-1.07-.178-3.923-1.07-4.993a6.239,6.239,0,0,1-1.6-4.279,4.136,4.136,0,0,0-2.5-3.745c-.891-.178-1.783-1.426-1.783-1.426s-1.961-3.209-3.209-3.744-1.426,0-2.318-2.674-1.427-1.783-2.318-3.566-.713-4.993-1.961-4.993a1.793,1.793,0,0,1-.859-.253c-.68-1.694-1.306-2.7-1.816-2.6-.031.006-.066.023-.1.033-.035-.132.042-.43-.08-.39-1.064.351-1.9,1.752-3.115,3.31a140.908,140.908,0,0,0-8.475,12.025L432.006,855.9l-6.419-7.221s.566-.719,1.714-1.971l15.4-11.669,5.884-9.094,8.685-4.246a5.435,5.435,0,0,0,3.09-1.511l.26-.127-.068-.062c.054-.053.107-.1.161-.158.612.194,5.3-2.118,6.059-2.188,2.942-.268,4.012.535,5.884.535a8.029,8.029,0,0,1,2.31.408c-.1-.455-.98-5.261,4.287-4.241,5.527,1.07,4.993.357,6.954,1.783s3.21,3.745,3.923,3.745-.713-.535,2.675-1.07a3.487,3.487,0,0,0,3.209-3.566s-1.07-3.744,1.6-3.031,2.675-1.07,2.675-1.07-1.6-1.961,2.318-2.318c3.054-.278,3.4-2.066,3.072-3.266l1.742.592,26.746,3.21,3.836-1.917.176.312,5.082-.267,10.7,5.884.267,8.023L564.4,832.9l-5.528,2.669c-.367.313-.7.621-.98.9C556.285,838.067,553.611,837.532,551.828,838.245Z" transform="translate(-390.283 -352.274)" fill="rgba(0,156,255,0.15)" stroke="#fff" stroke-linejoin="round" stroke-width="1"/>
        <path id="ГД" d="M598.43,761.074l-2.809,2.869-14.843-9.288-14.443,6.954-6.954,11.233-8.826,7.489-3.385,8.781-3.836,1.917-26.746-3.21-1.742-.592a2.388,2.388,0,0,0-.4-.835c-.713-.892-.713-.713-.535-1.961s1.248-2.5-.535-3.388-2.675-3.388-3.744-5.527-3.209-2.5-3.031-5.706.535-5.706-1.07-6.419-3.923-1.426-4.636-3.031a25.2,25.2,0,0,0-3.21-6.062c-1.6-1.961-1.6-1.427-.356-3.744a16.655,16.655,0,0,0,1.6-7.132c.178-2.5-1.783-2.675-2.674-3.923s1.07-3.21,1.961-4.814,1.248.178,2.853-1.961,3.031-2.14,3.566-4.993-3.209-4.458-4.992-5.171-4.636-4.636-6.954-3.566c-.833.385-2.182-.315.713-5.527.892-1.6,2.318-7.846,4.1-8.915s1.07,2.5,3.388,1.248,6.6.891,6.6.891,2.5,1.961.713-4.279,5.884-15.691,7.311-17.117,3.388-3.21,3.388-3.21.087-.377.209-.929l14.055-7.808,19.792,5.349,4.279-2.675,12.838,3.21,49.212,36.375,1.6.12.454,1.128,4.1,12.927Z" transform="translate(-399.441 -333.943)" fill="rgba(0,156,255,0.15)" stroke="#fff" stroke-linejoin="round" stroke-width="1"/>
    </g>
</svg>
