<svg width="50" height="30" viewBox="0 0 50 30" fill="none" xmlns="http://www.w3.org/2000/svg">
<path fill-rule="evenodd" clip-rule="evenodd" d="M40.7906 0C41.7332 0 50 0.0808803 50 2.88228C50 4.89036 45.7595 5.50176 43.0062 5.68716V8.08788C43.5688 8.68056 43.9167 9.49536 43.9167 10.3938V10.7075C46.3585 10.975 47.6323 12.875 47.6323 14.7552C47.6323 16.7833 46.151 18.836 43.3201 18.836H39.0824L41.2445 26.6071C41.6351 28.0098 40.8615 29.4842 39.5192 29.8936C39.2857 29.9648 39.0473 30 38.81 30C38.3888 30 37.9715 29.8888 37.5908 29.6699C36.9961 29.3284 36.565 28.7671 36.3758 28.0891L33.9917 19.5188C33.5179 19.7305 32.9979 20.0035 32.3304 20.3543C32.1483 20.45 31.9561 20.5508 31.752 20.6576C31.6433 20.7155 31.5098 20.7852 31.3682 20.8549C31.4061 21.0232 31.4267 21.1981 31.4267 21.3779V26.5357C31.4267 27.7973 30.4439 28.8241 29.2358 28.8241H26.6785C26.2711 28.8241 25.9407 28.4789 25.9407 28.0532C25.9407 27.6271 26.2711 27.2819 26.6785 27.2819H29.2358C29.6302 27.2819 29.9507 26.9471 29.9507 26.5357V21.3784C29.9507 21.2156 29.9004 21.0659 29.8157 20.943C29.8046 20.9291 29.7943 20.9148 29.784 20.9C29.6527 20.7362 29.456 20.6317 29.2358 20.6317H20.7615C20.3686 20.6317 20.0493 20.9665 20.0493 21.3784V26.5357C20.0493 26.9471 20.3686 27.2819 20.7615 27.2819H23.41C23.8179 27.2819 24.1482 27.6271 24.1482 28.0532C24.1482 28.4789 23.8179 28.8241 23.41 28.8241H20.7615C19.5549 28.8241 18.5733 27.7973 18.5733 26.5357V21.3779C18.5733 21.1966 18.5939 21.0196 18.6325 20.8502C18.5005 20.7872 18.3705 20.723 18.2445 20.6573C18.0408 20.5508 17.8489 20.45 17.667 20.3543C16.999 20.0035 16.4792 19.7305 16.0054 19.5188L13.6212 28.0888C13.4319 28.7668 13.0008 29.3284 12.4065 29.6699C12.0258 29.8888 11.6081 30 11.187 30C10.9501 30 10.7117 29.9648 10.4779 29.8936C9.13583 29.4842 8.36179 28.0098 8.75286 26.6068L10.9146 18.836H6.67726C3.84595 18.836 2.36473 16.7833 2.36473 14.7552C2.36473 12.8778 3.635 10.9805 6.06917 10.7087V10.3938C6.06917 9.4878 6.42321 8.66628 6.99345 8.07276V5.68716C4.24048 5.50176 0 4.89036 0 2.88228C0 0.0808803 8.26679 0 9.2094 0C10.152 0 18.4189 0.0808797 18.4189 2.8818C18.4189 4.89036 14.1785 5.5014 11.4254 5.6868V8.08788C11.9877 8.68056 12.336 9.49536 12.336 10.3938V10.6673C14.8823 10.6186 15.4914 10.2989 17.6667 9.15612L17.7308 9.1224C17.8937 9.03672 18.0648 8.94684 18.2454 8.85276C22.2858 6.7434 27.7142 6.7434 31.752 8.85324C31.9519 8.95764 32.14 9.05652 32.3185 9.1506C34.4956 10.2961 35.107 10.6178 37.6499 10.6668V10.3938C37.6499 9.4878 38.0039 8.66628 38.5746 8.07276V5.68716C35.8212 5.50176 31.5807 4.89036 31.5807 2.88228C31.5807 0.0808803 39.8476 0 40.7906 0ZM35.3654 2.04732C33.973 2.35068 33.3444 2.69616 33.125 2.8824C33.3439 3.06888 33.9726 3.41484 35.365 3.71904C36.86 4.04544 38.7868 4.2252 40.7906 4.2252C42.7933 4.2252 44.7198 4.04544 46.2151 3.71904C47.6075 3.41484 48.2365 3.06888 48.4558 2.8824C48.2365 2.69616 47.6071 2.35068 46.2148 2.04732C44.7201 1.72164 42.7937 1.54224 40.7906 1.54224C38.7864 1.54224 36.8596 1.72164 35.3654 2.04732ZM41.7881 9.02004C41.8057 9.036 41.8244 9.05076 41.8434 9.06516C42.207 9.38316 42.4389 9.86076 42.4389 10.394V10.6746H39.1244V10.394C39.1244 9.85956 39.3567 9.38124 39.721 9.06312C39.745 9.04596 39.7679 9.0276 39.79 9.00816C40.0665 8.79084 40.4088 8.66016 40.7804 8.66016C41.1595 8.66016 41.5081 8.79528 41.7881 9.02004ZM8.14179 9.06312C7.77786 9.3816 7.54559 9.85992 7.54559 10.394V10.6746H10.8601V10.394C10.8601 9.86076 10.6279 9.3828 10.2639 9.06432C10.2452 9.05076 10.2273 9.036 10.2098 9.02052C9.92976 8.79564 9.58071 8.66016 9.20155 8.66016C8.83 8.66016 8.48786 8.79048 8.21119 9.00768C8.18917 9.0276 8.16619 9.04596 8.14179 9.06312ZM1.54296 2.8824C1.76231 2.69616 2.39098 2.35068 3.78333 2.04732C5.27798 1.72164 7.2044 1.54224 9.20857 1.54224C11.212 1.54224 13.1385 1.72164 14.6331 2.04732C16.0251 2.35068 16.6545 2.69616 16.8743 2.8824C16.6545 3.06888 16.0255 3.41484 14.6331 3.71904C13.1381 4.04544 11.2117 4.2252 9.20857 4.2252C7.20476 4.2252 5.27798 4.04544 3.78298 3.71904C2.39098 3.41484 1.76231 3.06888 1.54296 2.8824ZM9.20976 5.76744C9.0831 5.76744 8.82333 5.76624 8.47 5.75664V7.20996C8.70464 7.15092 8.94952 7.11864 9.20131 7.11864C9.45917 7.11864 9.70988 7.15212 9.94976 7.21356V5.75664C9.59655 5.76624 9.33643 5.76744 9.20976 5.76744ZM12.2035 27.6581C12.1245 27.9412 11.9437 28.1759 11.6945 28.3194C11.4458 28.4626 11.1605 28.496 10.8908 28.4135C10.3293 28.2425 10.0058 27.6254 10.1694 27.0379L12.4483 18.846C13.3601 18.8671 14.0204 18.9253 14.5987 19.0481L12.2035 27.6581ZM38.3017 28.3194C38.5504 28.4621 38.8357 28.496 39.105 28.4135C39.6665 28.2425 39.9904 27.6254 39.8264 27.0379L37.5475 18.846C36.6357 18.8666 35.9755 18.9248 35.3971 19.0481L37.7927 27.6586C37.8718 27.9415 38.0521 28.1759 38.3017 28.3194ZM46.1564 14.7554C46.1564 16.019 45.2794 17.2945 43.3202 17.2945H38.4824C36.4438 17.2945 35.3193 17.4188 34.2843 17.7593L34.2786 17.7607L34.2718 17.7625C34.2535 17.768 34.2358 17.7749 34.218 17.7816C33.4436 18.0443 32.7096 18.4294 31.6675 18.977L31.5119 19.0586L31.5106 19.0594C31.3765 19.1297 31.236 19.2035 31.0861 19.282C31.0255 19.3142 30.7725 19.4378 30.5456 19.5446C30.1801 19.2592 29.7265 19.0898 29.236 19.0898H20.7617C20.2714 19.0898 19.8186 19.2592 19.4536 19.5446C19.2644 19.459 19.0805 19.37 18.905 19.2784C18.702 19.1723 18.5113 19.0723 18.3305 18.977C17.2876 18.4294 16.5532 18.0439 15.7785 17.7812L15.7746 17.7798C15.7585 17.7734 15.7425 17.7673 15.7258 17.7625C15.7239 17.7619 15.722 17.7614 15.7202 17.7611C15.718 17.7605 15.7157 17.76 15.7136 17.7593C14.6787 17.4188 13.5537 17.2945 11.5151 17.2945H6.67738C4.7181 17.2945 3.84119 16.019 3.84119 14.7554C3.84119 13.492 4.7181 12.2164 6.67738 12.2164H11.5151C11.5415 12.2164 11.5667 12.2164 11.593 12.216L11.5952 12.2162L11.598 12.2164L11.6007 12.2162L11.604 12.216C15.1388 12.2096 15.8906 11.8154 18.3298 10.534L18.5407 10.4233C18.6579 10.3619 18.7792 10.2983 18.905 10.2326C22.5511 8.32932 27.4488 8.32884 31.0921 10.2322C31.2365 10.3079 31.3748 10.3806 31.5077 10.4506L31.6549 10.528C34.1195 11.825 34.8638 12.2164 38.4824 12.2164H43.3202C45.2794 12.2164 46.1564 13.4915 46.1564 14.7554ZM40.7837 7.11864C41.0417 7.11864 41.2919 7.15212 41.5318 7.21356V5.75664C41.1786 5.76624 40.9188 5.76744 40.7921 5.76744C40.6655 5.76744 40.4057 5.76624 40.052 5.75664V7.20996C40.287 7.15092 40.532 7.11864 40.7837 7.11864Z" fill="#0075BE"/>
<path d="M38.4526 13.8684C38.0452 13.8684 37.7148 14.2136 37.7148 14.6392C37.7148 15.065 38.0452 15.4101 38.4526 15.4101H42.831C43.2385 15.4101 43.5689 15.065 43.5689 14.6392C43.5689 14.2136 43.2385 13.8684 42.831 13.8684H38.4526Z" fill="#0075BE"/>
<path d="M11.5459 13.8684H7.16729C6.75956 13.8684 6.4292 14.2136 6.4292 14.6392C6.4292 15.065 6.75956 15.4101 7.16729 15.4101H11.5455C11.9532 15.4101 12.2836 15.065 12.2836 14.6392C12.2836 14.2136 11.9532 13.8684 11.5459 13.8684Z" fill="#0075BE"/>
<path d="M21.6819 12.4287C21.2742 12.4287 20.9438 12.7739 20.9438 13.1996V15.5716C20.9438 15.9974 21.2742 16.3425 21.6819 16.3425C22.0893 16.3425 22.4197 15.9974 22.4197 15.5716V13.1996C22.4197 12.7739 22.0893 12.4287 21.6819 12.4287Z" fill="#0075BE"/>
<path d="M24.999 11.6705C24.5916 11.6705 24.2612 12.0156 24.2612 12.4414V16.3305C24.2612 16.7561 24.5916 17.1013 24.999 17.1013C25.4068 17.1013 25.7372 16.7561 25.7372 16.3305V12.4414C25.7372 12.0156 25.4068 11.6705 24.999 11.6705Z" fill="#0075BE"/>
<path fill-rule="evenodd" clip-rule="evenodd" d="M25.0001 21.4301C26.3333 21.4301 27.4182 22.5629 27.4182 23.9555C27.4182 25.3502 26.3333 26.4842 25.0001 26.4842C23.6683 26.4842 22.585 25.3502 22.585 23.9555C22.585 22.5629 23.6683 21.4301 25.0001 21.4301ZM24.0601 23.9558C24.0601 24.4999 24.4815 24.9427 24.9992 24.9427C25.5188 24.9427 25.9414 24.4999 25.9414 23.9558C25.9414 23.4133 25.5188 22.9721 24.9992 22.9721C24.4815 22.9721 24.0601 23.4133 24.0601 23.9558Z" fill="#0075BE"/>
<path d="M28.3159 12.4287C27.9085 12.4287 27.5781 12.7739 27.5781 13.1996V15.5716C27.5781 15.9974 27.9085 16.3425 28.3159 16.3425C28.7237 16.3425 29.0541 15.9974 29.0541 15.5716V13.1996C29.0541 12.7739 28.7237 12.4287 28.3159 12.4287Z" fill="#0075BE"/>
</svg>
