<svg width="38" height="50" viewBox="0 0 38 50" fill="none" xmlns="http://www.w3.org/2000/svg">
<path fill-rule="evenodd" clip-rule="evenodd" d="M9.62338 6C10.0322 6 10.3636 6.33579 10.3636 6.75V9.33431L13.8246 11.5259C14.1276 11.7178 14.3117 12.0542 14.3117 12.4163V13.4102C14.3117 14.0417 13.7653 14.5304 13.1468 14.4521L10.3636 14.0996V15.2865L11.9285 16.0792C12.2941 16.2644 12.4423 16.7149 12.2595 17.0854C12.0767 17.4559 11.632 17.6061 11.2663 17.4208L9.62338 16.5885L7.9804 17.4208C7.61473 17.6061 7.17008 17.4559 6.98724 17.0854C6.80441 16.7149 6.95262 16.2644 7.3183 16.0792L8.88312 15.2865V14.0996L6.09997 14.4521C5.48142 14.5304 4.93506 14.0417 4.93506 13.4102V12.4163C4.93506 12.0542 5.11914 11.7178 5.42216 11.5259L8.88312 9.33431V6.75C8.88312 6.33579 9.21454 6 9.62338 6ZM8.88312 11.1032L6.41558 12.6657V12.9004L8.88312 12.5879V11.1032ZM10.3636 12.5879L12.8312 12.9004V12.6657L10.3636 11.1032V12.5879Z" fill="#0075BE"/>
<path fill-rule="evenodd" clip-rule="evenodd" d="M16.0332 8.67383C16.0332 7.29312 17.1379 6.17383 18.5007 6.17383H23.4358C24.7986 6.17383 25.9033 7.29312 25.9033 8.67383C25.9033 10.0545 24.7986 11.1738 23.4358 11.1738H18.5007C17.1379 11.1738 16.0332 10.0545 16.0332 8.67383ZM18.5007 7.67383H23.4358C23.9809 7.67383 24.4228 8.12154 24.4228 8.67383C24.4228 9.22611 23.9809 9.67383 23.4358 9.67383H18.5007C17.9556 9.67383 17.5137 9.22611 17.5137 8.67383C17.5137 8.12154 17.9556 7.67383 18.5007 7.67383Z" fill="#0075BE"/>
<path d="M17.5571 13.4741C17.5571 13.0599 17.8885 12.7241 18.2973 12.7241H23.6393C24.0481 12.7241 24.3796 13.0599 24.3796 13.4741C24.3796 13.8883 24.0481 14.2241 23.6393 14.2241H18.2973C17.8885 14.2241 17.5571 13.8883 17.5571 13.4741Z" fill="#0075BE"/>
<path d="M31.3738 12.7241C30.965 12.7241 30.6335 13.0599 30.6335 13.4741C30.6335 13.8883 30.965 14.2241 31.3738 14.2241H32.9254C33.3343 14.2241 33.6657 13.8883 33.6657 13.4741C33.6657 13.0599 33.3343 12.7241 32.9254 12.7241H31.3738Z" fill="#0075BE"/>
<path d="M17.5571 16.75C17.5571 16.3358 17.8885 16 18.2973 16H23.6393C24.0481 16 24.3796 16.3358 24.3796 16.75C24.3796 17.1642 24.0481 17.5 23.6393 17.5H18.2973C17.8885 17.5 17.5571 17.1642 17.5571 16.75Z" fill="#0075BE"/>
<path d="M31.3738 16C30.965 16 30.6335 16.3358 30.6335 16.75C30.6335 17.1642 30.965 17.5 31.3738 17.5H32.9254C33.3343 17.5 33.6657 17.1642 33.6657 16.75C33.6657 16.3358 33.3343 16 32.9254 16H31.3738Z" fill="#0075BE"/>
<path fill-rule="evenodd" clip-rule="evenodd" d="M9.50796 29.9901C8.23709 29.929 7.22524 28.8657 7.22524 27.563C7.22524 26.221 8.29903 25.1331 9.62361 25.1331C10.9482 25.1331 12.022 26.221 12.022 27.563C12.022 28.4135 11.5907 29.162 10.9375 29.5961C10.9839 29.7454 11.0347 29.8989 11.0901 30.056C11.2278 30.446 11.0272 30.8753 10.6423 31.0147C10.2573 31.1541 9.83364 30.951 9.69602 30.5609C9.62748 30.3667 9.56483 30.1762 9.50796 29.9901ZM9.52766 28.4879C9.61596 28.4082 9.72442 28.3489 9.84746 28.3191C9.95557 28.2929 10.0638 28.2923 10.166 28.3132C10.3937 28.144 10.5415 27.871 10.5415 27.563C10.5415 27.0494 10.1305 26.6331 9.62361 26.6331C9.1167 26.6331 8.70576 27.0494 8.70576 27.563C8.70576 28.0437 9.06584 28.4393 9.52766 28.4879Z" fill="#0075BE"/>
<path fill-rule="evenodd" clip-rule="evenodd" d="M29.0603 43.3328C30.3848 43.3328 31.4586 42.2448 31.4586 40.9028C31.4586 39.5608 30.3848 38.4729 29.0603 38.4729C27.8679 38.4729 26.8787 39.3545 26.6932 40.5094C26.4794 40.5124 26.2682 40.5121 26.0596 40.5086C25.6508 40.5018 25.314 40.832 25.3073 41.2462C25.3006 41.6604 25.6266 42.0016 26.0353 42.0084C26.3268 42.0132 26.6225 42.0123 26.9224 42.0054C27.3191 42.7932 28.1275 43.3328 29.0603 43.3328ZM29.0603 41.8328C29.5672 41.8328 29.9781 41.4164 29.9781 40.9028C29.9781 40.3892 29.5672 39.9729 29.0603 39.9729C28.5533 39.9729 28.1424 40.3892 28.1424 40.9028C28.1424 41.4164 28.5533 41.8328 29.0603 41.8328Z" fill="#0075BE"/>
<path fill-rule="evenodd" clip-rule="evenodd" d="M26.1045 21.2734H5.57508C4.48486 21.2734 3.60106 22.1689 3.60106 23.2734V40.0054C3.60106 40.4196 3.93248 40.7554 4.34131 40.7554C4.75015 40.7554 5.08157 40.4196 5.08157 40.0054V35.9668C5.27046 36.0579 5.4837 36.1466 5.7237 36.2289C7.0438 36.6817 9.14789 36.9323 12.4378 36.3441C15.6712 35.766 17.3506 33.4647 18.8469 31.0132C19.0674 30.6519 19.2845 30.2868 19.5024 29.9204C20.7928 27.7502 22.1109 25.5335 24.3239 23.7959C24.8959 23.3468 25.4719 23.07 25.9049 22.9061C26.0577 22.8482 26.1914 22.805 26.299 22.7734H32.3621C32.6347 22.7734 32.8556 22.9973 32.8556 23.2734V28.1017C32.6609 28.0297 32.444 27.9625 32.2063 27.9069C31.0459 27.6356 29.4348 27.6543 27.5365 28.6725C26.515 29.2205 25.6614 30.1799 24.9076 31.2632C24.1489 32.3536 23.4391 33.6483 22.739 34.9332L22.6711 35.0578C21.9859 36.3156 21.3049 37.5657 20.5651 38.6853C19.7999 39.8431 19.0012 40.8146 18.122 41.482C16.8607 42.4395 15.3102 43.2939 14.0576 43.9145C13.4348 44.2231 12.8927 44.4704 12.507 44.6402C12.4185 44.6792 12.3383 44.7141 12.2673 44.7446H5.57508C5.30253 44.7446 5.08157 44.5208 5.08157 44.2446V43.2782C5.08157 42.864 4.75015 42.5282 4.34131 42.5282C3.93248 42.5282 3.60106 42.864 3.60106 43.2782V44.2446C3.60106 45.3492 4.48485 46.2446 5.57508 46.2446H12.4281C12.4472 46.293 12.4472 46.293 12.4472 46.293L12.4483 46.2925L12.4509 46.2915L12.4602 46.2877L12.4947 46.2736L12.5647 46.2446H32.3621C33.4523 46.2446 34.3362 45.3492 34.3362 44.2446V23.2734C34.3362 22.1689 33.4523 21.2734 32.3621 21.2734H26.3361L26.3286 21.2301L26.3274 21.2241L26.3259 21.2243L26.3235 21.2247L26.3174 21.2259L26.2994 21.2293C26.2849 21.2321 26.2656 21.2361 26.2417 21.2412C26.2059 21.249 26.1598 21.2596 26.1045 21.2734ZM23.2131 22.7734H5.57508C5.30252 22.7734 5.08157 22.9973 5.08157 23.2734V34.1961C5.11097 34.2242 5.15109 34.2597 5.2034 34.3006C5.37591 34.4352 5.68829 34.6331 6.19843 34.8081C7.19933 35.1514 8.9855 35.4138 11.9903 34.9002C11.6636 34.4477 11.3672 33.9928 11.0999 33.5418C10.8894 33.1867 11.0029 32.726 11.3533 32.5127C11.7038 32.2995 12.1586 32.4144 12.3691 32.7695C12.7034 33.3335 13.0872 33.9041 13.5235 34.4663C15.2598 33.7123 16.3917 32.1839 17.5877 30.2243C17.7929 29.8881 17.9996 29.5394 18.2115 29.182C19.4596 27.0768 20.8848 24.6728 23.2131 22.7734ZM32.8379 29.733L32.8556 29.7428V44.2446C32.8556 44.5208 32.6347 44.7446 32.3621 44.7446H15.7147C16.7882 44.1718 17.9773 43.4662 19.0097 42.6825C19.5785 42.2507 20.1011 41.7299 20.5868 41.154C21.2928 41.3769 22.0352 41.5615 22.815 41.7015C23.2175 41.7738 23.6017 41.5017 23.673 41.0939C23.7444 40.686 23.4759 40.2968 23.0733 40.2245C22.5471 40.13 22.0407 40.0138 21.5535 39.8782C21.6352 39.7597 21.7157 39.6402 21.7953 39.5198C22.5713 38.3455 23.2797 37.045 23.9554 35.8045L24.0351 35.6581C24.743 34.3591 25.414 33.1388 26.1176 32.1275C26.8262 31.1092 27.5166 30.3805 28.2292 29.9982C29.7993 29.1561 31.0446 29.1747 31.8734 29.3685C32.2953 29.4671 32.6218 29.6143 32.8379 29.733Z" fill="#0075BE"/>
<path d="M15.9183 36.9449C15.6018 36.6827 15.1354 36.7301 14.8766 37.0507C14.6178 37.3714 14.6645 37.8439 14.981 38.1061C15.6598 38.6685 16.4048 39.1954 17.2195 39.6691C17.5741 39.8752 18.0265 39.7511 18.23 39.3918C18.4335 39.0326 18.311 38.5742 17.9564 38.368C17.215 37.937 16.5368 37.4574 15.9183 36.9449Z" fill="#0075BE"/>
<path fill-rule="evenodd" clip-rule="evenodd" d="M0 1.75C0 0.783502 0.773326 0 1.72727 0H30.6573L38 7.43934V48.25C38 49.2165 37.2267 50 36.2727 50H1.72727C0.773325 50 0 49.2165 0 48.25V1.75ZM1.72727 1.5C1.59099 1.5 1.48052 1.61193 1.48052 1.75V48.25C1.48052 48.3881 1.59099 48.5 1.72727 48.5H36.2727C36.409 48.5 36.5195 48.3881 36.5195 48.25V8.5H31.3377C30.3837 8.5 29.6104 7.7165 29.6104 6.75V1.5H1.72727ZM31.0909 2.56066L35.4726 7H31.3377C31.2014 7 31.0909 6.88807 31.0909 6.75V2.56066Z" fill="#0075BE"/>
</svg>
