<svg width="18" height="19" viewBox="0 0 18 19" fill="none" xmlns="http://www.w3.org/2000/svg">
<path d="M2.28985 7.3C2.12683 7.46373 2.02553 7.67885 2.00317 7.90882C1.98082 8.13878 2.03878 8.36939 2.16722 8.56145C2.29565 8.75351 2.48663 8.89517 2.70769 8.96236C2.92875 9.02955 3.16626 9.01811 3.37985 8.93C3.50138 8.87564 3.61293 8.80128 3.70985 8.71C3.7998 8.61785 3.8711 8.50919 3.91985 8.39C3.97701 8.26817 4.00443 8.1345 3.99985 8C3.99874 7.73766 3.89459 7.48626 3.70985 7.3C3.61688 7.20627 3.50628 7.13188 3.38442 7.08111C3.26256 7.03034 3.13186 7.0042 2.99985 7.0042C2.86784 7.0042 2.73713 7.03034 2.61527 7.08111C2.49341 7.13188 2.38281 7.20627 2.28985 7.3ZM2.99985 2C3.26506 2 3.51942 2.10536 3.70695 2.29289C3.89449 2.48043 3.99985 2.73478 3.99985 3C3.99985 3.26522 3.89449 3.51957 3.70695 3.70711C3.51942 3.89464 3.26506 4 2.99985 4C2.73463 4 2.48028 4.10536 2.29274 4.29289C2.1052 4.48043 1.99985 4.73478 1.99985 5C1.99985 5.26522 2.1052 5.51957 2.29274 5.70711C2.48028 5.89464 2.73463 6 2.99985 6C3.52638 5.99966 4.04354 5.86075 4.49938 5.59723C4.95522 5.33371 5.33368 4.95486 5.59672 4.49875C5.85977 4.04264 5.99813 3.52533 5.99792 2.9988C5.99771 2.47227 5.85893 1.95507 5.59552 1.49917C5.33211 1.04326 4.95335 0.664718 4.4973 0.401563C4.04125 0.138409 3.52397 -8.42941e-05 2.99744 3.84915e-08C2.47091 8.43711e-05 1.95368 0.138743 1.49772 0.402044C1.04175 0.665344 0.663112 1.04401 0.399847 1.5C0.333728 1.61413 0.290842 1.74022 0.273659 1.871C0.256475 2.00178 0.265334 2.13466 0.299725 2.262C0.334117 2.38934 0.39336 2.50862 0.474045 2.61297C0.554729 2.71732 0.65526 2.80467 0.769847 2.87C0.999464 3.00037 1.27133 3.03464 1.52611 2.96532C1.7809 2.896 1.99793 2.72873 2.12985 2.5C2.21795 2.34739 2.34482 2.22078 2.49759 2.13298C2.65037 2.04517 2.82364 1.9993 2.99985 2ZM14.9998 3H8.99985C8.73463 3 8.48028 3.10536 8.29274 3.29289C8.1052 3.48043 7.99985 3.73478 7.99985 4C7.99985 4.26522 8.1052 4.51957 8.29274 4.70711C8.48028 4.89464 8.73463 5 8.99985 5H14.9998C15.2651 5 15.5194 5.10536 15.707 5.29289C15.8945 5.48043 15.9998 5.73478 15.9998 6V15.72L14.4298 14.27C14.2454 14.0973 14.0025 14.0009 13.7498 14H4.99985C4.73463 14 4.48028 13.8946 4.29274 13.7071C4.1052 13.5196 3.99985 13.2652 3.99985 13V12C3.99985 11.7348 3.89449 11.4804 3.70695 11.2929C3.51942 11.1054 3.26506 11 2.99985 11C2.73463 11 2.48028 11.1054 2.29274 11.2929C2.1052 11.4804 1.99985 11.7348 1.99985 12V13C1.99985 13.7956 2.31592 14.5587 2.87853 15.1213C3.44114 15.6839 4.2042 16 4.99985 16H13.3598L16.3598 18.73C16.5341 18.8936 16.7611 18.9894 16.9998 19C17.137 18.9985 17.2727 18.9714 17.3998 18.92C17.5787 18.8419 17.7308 18.7132 17.8375 18.5497C17.9441 18.3863 18.0005 18.1952 17.9998 18V6C17.9998 5.20435 17.6838 4.44129 17.1212 3.87868C16.5586 3.31607 15.7955 3 14.9998 3Z" fill="#A3A2A2"/>
</svg>
